<svg width="18" height="45" viewBox="0 0 18 45" fill="none" xmlns="http://www.w3.org/2000/svg">
<path fill-rule="evenodd" clip-rule="evenodd" d="M11.3751 12.6539C11.4628 12.0781 11.5774 11.505 11.6328 10.9261C11.7141 10.0817 11.7446 9.23278 11.8109 8.38718C11.9093 7.12163 11.9973 5.85419 12.134 4.59242C12.2403 3.61039 12.3861 2.63072 12.5675 1.65956C12.66 1.16725 12.8326 0.680133 13.1962 0.29588C13.53 -0.0564503 13.69 -0.0923952 14.0928 0.178828C14.6223 0.535178 14.9191 1.04972 15.0522 1.66949C15.2004 2.36091 15.3364 3.04855 15.3675 3.76125C15.4077 4.66714 15.5311 5.56878 15.5974 6.47396C15.6512 7.19848 15.6338 7.9301 15.7187 8.65036C15.8607 9.85656 15.9329 11.0635 15.9144 12.2768C15.9104 12.5194 15.9168 12.7632 15.9358 13.0048C16.0169 14.0108 16.1101 15.0152 16.189 16.0212C16.2653 17.0056 16.321 17.9918 16.408 18.9755C16.4201 19.1141 16.5412 19.255 16.6391 19.3718C17.4057 20.2867 17.6642 21.3797 17.4602 22.4955C17.318 23.2704 16.929 24.0276 16.5269 24.7223C15.9203 25.772 15.2051 26.7599 14.5375 27.775C14.0909 28.4542 13.6313 29.142 13.5069 29.9567C13.252 31.6258 13.356 33.3028 13.5236 34.973C13.6025 35.7552 13.754 36.5301 13.8591 37.3104C14.0617 38.8084 14.2716 40.3064 14.4395 41.8094C14.4832 42.1976 14.5051 42.6739 14.3213 42.9825C13.9946 43.5301 13.5291 43.995 12.9213 44.2982C12.2722 44.6223 11.5981 44.7614 10.88 44.8493C9.29598 45.044 7.71146 44.9692 6.12599 44.9846C6.0461 44.9858 5.96359 44.9669 5.88608 44.9449C4.79327 44.633 3.68763 44.3587 2.61432 43.9924C1.62376 43.6547 1.69128 43.4755 1.74026 42.5337C1.74264 42.4932 1.7581 42.454 1.76666 42.4147C2.0955 40.8943 2.43456 39.3757 2.75127 37.8529C3.10033 36.1702 3.41633 34.4835 3.3507 32.7493C3.32574 32.0898 3.2166 31.4658 2.91367 30.8774C2.47902 30.0314 1.96306 29.2146 1.63588 28.3293C1.20242 27.1572 0.890224 25.937 0.58207 24.7235C0.444161 24.1803 0.428232 23.6036 0.385195 23.0399C0.302688 21.9543 0.216137 20.8677 0.175478 19.7797C0.136721 18.7298 0.115798 17.6766 0.163115 16.6279C0.185228 16.1385 0.17429 15.6691 0.107476 15.1846C0.0233043 14.5667 0.00237944 13.9372 1.7074e-06 13.3129C-0.000473839 13.111 0.0984395 12.8698 0.231593 12.714C0.680033 12.1888 1.28421 11.9183 1.94451 11.7275C2.41506 11.5915 2.7703 11.854 3.17213 11.9625C3.24727 11.9828 3.31955 12.0124 3.41823 12.0464C4.58902 11.0138 5.8447 11.0585 7.0961 11.8228C7.24947 11.7161 7.3529 11.6513 7.44825 11.5768C8.03032 11.1212 8.67206 10.9623 9.39394 11.1744C9.76297 11.2831 10.1296 11.4035 10.5039 11.4905C10.9193 11.5868 11.1021 11.8809 11.2172 12.2427C11.2583 12.3718 11.2697 12.5102 11.2942 12.6445C11.3211 12.6473 11.348 12.6506 11.3751 12.6539ZM8.5634 21.0124C7.68697 21.5449 7.04807 22.2915 6.36971 23.0162C5.67707 23.7566 5.37843 24.6963 4.85913 25.5296C4.64347 24.7966 4.9735 24.1825 5.31399 23.6149C5.664 23.0316 6.13384 22.5194 6.5887 21.928C6.46624 21.911 6.36186 21.8873 6.25676 21.8831C5.49898 21.8505 4.91287 21.526 4.62374 20.8192C4.48298 20.4754 4.26803 20.4303 3.96035 20.4418C3.61463 20.4549 3.26819 20.4444 2.92271 20.4428C2.02607 20.4385 1.36934 19.9975 0.909485 19.2742C0.781088 19.073 0.750652 18.7719 0.771576 18.5248C0.804627 18.1247 0.721643 17.7689 0.51906 17.3326C0.51906 18.2054 0.486962 18.9904 0.526195 19.7722C0.586114 20.9405 0.673613 22.1089 0.793213 23.2725C0.87144 24.0335 0.999124 24.7921 1.15605 25.5409C1.2923 26.1926 1.45113 26.8479 1.68867 27.4681C2.0206 28.3331 2.3347 29.2314 2.83497 30.0006C3.83338 31.5353 3.97176 33.1981 3.70926 34.9016C3.35213 37.2154 2.86969 39.51 2.43147 41.8108C2.36347 42.1679 2.22556 42.511 2.15209 42.8666C2.05698 43.3272 2.13235 43.497 2.53585 43.6183C3.60417 43.939 4.67819 44.24 5.75506 44.5299C5.9857 44.5918 6.23869 44.5923 6.48051 44.5876C7.70029 44.5613 8.92196 44.5566 10.1386 44.4812C10.9842 44.4289 11.8254 44.3263 12.6008 43.8952C13.1363 43.5968 13.531 43.1778 13.8957 42.7193C13.9953 42.5935 14.0236 42.375 14.011 42.2052C13.953 41.4001 13.8831 40.5958 13.7913 39.7957C13.6629 38.6727 13.51 37.553 13.3688 36.4322C13.2504 35.4913 13.0792 34.5533 13.0297 33.6088C12.9731 32.5194 12.9993 31.4234 13.0345 30.3319C13.079 28.9909 13.8232 27.9368 14.5455 26.8788C15.0137 26.1931 15.4602 25.4929 15.9313 24.8093C16.4444 24.0652 16.7725 23.2375 17.0364 22.3868C17.1289 22.0886 17.093 21.7514 17.1147 21.4319C17.1159 21.4128 17.1035 21.3934 17.099 21.3737C16.7105 19.426 16.778 19.6731 15.0518 18.4381C13.7305 17.4922 12.3126 16.6908 10.8396 15.9937C10.1356 15.6603 9.40678 15.378 8.61452 15.4406C8.11353 15.4804 7.60613 15.5832 7.12892 15.74C6.49311 15.9486 5.87752 16.2236 5.26501 16.4946C4.22499 16.9547 3.19092 17.4286 2.16041 17.9098C1.92382 18.0202 1.69223 18.1607 1.49227 18.3281C1.04073 18.7064 1.04525 19.0902 1.45517 19.5244C1.7531 19.8396 2.14067 19.9956 2.5437 20.011C3.80152 20.059 5.06861 20.1307 6.28839 19.7128C6.61319 19.6019 6.92681 19.4544 7.23354 19.2995C7.61207 19.1087 7.66224 19.1061 7.87814 19.4269C8.11401 19.7783 8.32896 20.1451 8.58028 20.4854C9.46313 21.683 10.5227 22.6114 12.1107 22.7088C12.3597 22.7239 12.359 22.7329 12.5459 23.108C10.7785 23.1884 9.67523 22.1101 8.5634 21.0124ZM15.9279 18.6506C15.9339 18.4284 15.9596 18.1999 15.9429 17.9748C15.8224 16.3865 15.6797 14.7994 15.5708 13.2103C15.5099 12.3243 15.5171 11.434 15.4633 10.5477C15.3925 9.37985 15.2905 8.21385 15.2044 7.04667C15.1923 6.8854 15.1994 6.72248 15.187 6.56145C15.1105 5.59739 15.0508 4.6312 14.9445 3.67045C14.8627 2.93079 14.7403 2.19373 14.5952 1.46353C14.542 1.19657 14.4131 0.919907 14.2443 0.706617C13.9074 0.281692 13.4275 0.354047 13.1905 0.833122C12.8519 1.51745 12.7487 2.26467 12.6819 3.00575C12.5444 4.53259 12.4698 6.06488 12.3497 7.59314C12.2413 8.97905 12.1086 10.3631 11.9826 11.7473C11.9533 12.0689 11.9189 12.391 11.8656 12.7093C11.7831 13.2046 11.7229 13.7102 11.3946 14.1273C11.3456 14.189 11.2949 14.2623 11.2831 14.3366C11.2089 14.7904 11.1463 15.2463 11.0845 15.6684C12.6961 16.6606 14.2807 17.6364 15.9279 18.6506ZM3.00236 16.9717C3.47767 16.7436 3.47696 16.6842 3.40372 16.1682C3.32788 15.6315 3.27485 15.089 3.24965 14.5475C3.22468 14.0025 3.24846 13.4548 3.24608 12.9084C3.2437 12.3141 2.80263 11.9377 2.22627 12.0855C1.85677 12.1801 1.48466 12.3205 1.15796 12.5139C0.646983 12.8161 0.364508 13.229 0.386621 13.901C0.430133 15.2489 0.817703 16.5147 1.08044 17.8552C1.78758 17.5312 2.40008 17.2614 3.00236 16.9717ZM10.6423 15.5343C10.7248 15.0223 10.8284 14.5586 10.8674 14.09C10.91 13.5664 10.9002 13.0375 10.9002 12.5109C10.9009 12.0041 10.8125 11.8648 10.3236 11.7185C9.95651 11.6083 9.5756 11.5222 9.19469 11.482C8.25382 11.3832 7.37192 12.0245 7.21428 12.9611C7.10466 13.6133 7.09087 14.2815 7.04118 14.9431C7.03571 15.0141 7.08184 15.0885 7.1225 15.2207C8.31992 14.792 9.4541 15.0349 10.6423 15.5343ZM6.59678 15.378C6.67572 14.2635 6.75205 13.1862 6.8355 12.0129C6.1764 11.6229 5.42361 11.5066 4.61803 11.8613C4.58118 11.8776 4.54836 11.9022 4.51317 11.9235C3.50597 12.531 3.68192 12.3382 3.68905 13.3238C3.69547 14.2297 3.74945 15.1354 3.79248 16.0406C3.80033 16.194 3.8593 16.3451 3.9059 16.5464C4.87316 16.1264 5.76077 15.7407 6.59678 15.378ZM4.93712 20.4946C4.90597 20.9067 5.10428 21.1921 5.47782 21.3184C5.7572 21.4125 6.0694 21.4709 6.36257 21.4549C6.84573 21.4284 7.04736 21.1101 6.95843 20.6265C6.9261 20.452 6.89471 20.2773 6.86309 20.1046C6.21396 20.2356 5.58719 20.3626 4.93712 20.4946ZM8.30185 20.6081C8.08334 20.2837 7.88741 19.993 7.69696 19.7102C7.1867 19.946 7.17813 20.0101 7.49033 21.1907C7.78303 20.9807 8.02128 20.8098 8.30185 20.6081Z" fill="black"/>
</svg>
