<svg width="110" height="307" viewBox="0 0 110 307" fill="none" xmlns="http://www.w3.org/2000/svg">
<mask id="path-1-inside-1_1444_26213" fill="white">
<path fill-rule="evenodd" clip-rule="evenodd" d="M70.202 110.562C70.381 109.852 70.6287 109.153 70.7331 108.431C71.2507 104.775 71.8116 101.122 72.2054 97.4513C73.1228 88.86 74.3817 80.2746 74.7189 71.6564C75.1843 59.928 75.9584 48.2696 78.187 36.7394C78.9373 32.8523 79.8354 28.9607 82.3041 25.7251C84.5402 22.7863 86.1721 22.5567 89.0868 24.8201C91.8927 27 93.7245 29.8941 94.3271 33.4323C95.1177 38.0634 96.0426 42.6931 96.4722 47.363C97.3643 56.9817 98.0833 66.6197 98.6441 76.2652C99.1722 85.4276 99.4004 94.6079 99.7644 103.779C99.7763 104.036 99.7868 104.291 99.8136 104.546C100.443 111.124 101.155 117.692 101.678 124.278C102.159 130.367 102.375 136.479 102.866 142.57C102.943 143.559 103.696 144.602 104.383 145.416C109.32 151.294 110.957 158.247 109.474 165.468C108.495 170.232 106.204 174.884 103.74 179.15C99.915 185.762 95.5697 192.089 91.217 198.378C86.3421 205.431 83.8271 213.032 83.9838 221.689C84.1568 231.254 84.2314 240.783 85.7708 250.273C87.258 259.439 88.3887 268.661 89.5344 277.878C90.0863 282.293 90.4413 286.743 90.5979 291.184C90.6457 292.577 90.0728 294.225 89.2464 295.367C85.9394 299.938 81.5419 303.184 76.0763 304.715C73.6493 305.394 71.0687 305.525 68.5656 305.929C58.6698 307.528 48.6993 306.831 38.7527 306.94C38.1247 306.943 37.4758 306.824 36.8687 306.649C29.8905 304.642 22.8259 302.889 15.979 300.509C10.6716 298.659 9.90782 297.417 11.0012 291.418C12.7659 281.776 15.1988 272.263 17.1693 262.656C19.3994 251.793 21.5669 240.919 21.0731 229.714C20.8926 225.7 20.3273 221.854 18.4388 218.27C16.419 214.433 14.4157 210.592 12.393 206.756C8.42655 199.231 6.60221 191 4.53025 182.852C2.47768 174.779 2.47023 166.468 1.74079 158.245C1.42605 154.694 1.11577 151.134 1.0397 147.575C0.902461 141.077 0.945725 134.574 0.905449 128.074C0.890532 125.301 0.945735 122.525 0.804025 119.759C0.590712 115.573 0.126759 111.398 0.00145681 107.21C-0.0313604 106.053 0.493737 104.655 1.22616 103.739C3.59795 100.776 6.86475 99.0885 10.3687 97.7123C13.3685 96.5343 16.0954 97.086 18.8789 98.2222C19.0519 98.2938 19.3368 98.094 19.8798 97.921C19.6933 95.7232 19.5128 93.4538 19.3025 91.1875C18.5596 83.1911 17.4558 75.2081 17.1485 67.1953C16.7711 57.3783 16.8755 47.5315 17.1485 37.7101C17.2649 33.5471 18.1032 29.3543 19.0414 25.2748C19.8171 21.8887 21.9741 20.3574 24.9172 20.2113C29.2133 19.9996 31.5135 21.1954 32.944 24.6471C33.6257 26.2857 34.1344 28.0318 34.4491 29.7763C36.0288 38.5659 37.1983 47.3884 37.5727 56.345C37.8606 63.2067 39.1002 70.0252 39.7342 76.878C40.5994 86.276 41.2632 95.6919 42.0956 105.09C42.2298 106.615 42.7922 108.103 43.1591 109.606C43.4962 109.575 43.8334 109.547 44.169 109.515C44.263 108.076 44.4271 106.636 44.439 105.194C44.4882 99.7028 44.3614 94.2039 44.5375 88.7154C44.794 80.6861 45.4921 72.6688 45.5787 64.6411C45.7591 47.9162 45.5965 31.1898 46.7392 14.4857C47.1285 8.74522 49.3094 4.11408 54.3245 1.09921C57.5241 -0.82572 60.3181 -0.218852 62.205 2.89144C63.1761 4.49729 63.9056 6.33571 64.3471 8.16521C67.2574 20.1308 67.9884 32.3468 68.2912 44.6001C68.5015 52.8918 68.6134 61.1849 68.8043 69.4736C68.9147 74.1942 69.1608 78.9103 69.2324 83.6309C69.307 88.5961 69.3518 93.5657 69.216 98.5278C69.1041 102.524 68.8043 106.508 69.2906 110.477C69.6009 110.505 69.9022 110.534 70.202 110.562ZM48.116 147.313C42.6132 150.842 36.715 151.795 30.7662 152.186C26.0733 152.494 21.3043 152.567 16.6368 152.096C11.4979 151.576 7.70308 148.485 5.22388 143.979C4.71522 143.05 4.67792 141.76 4.71521 140.648C4.85394 136.61 4.90021 136.612 3.17581 132.389C3.17581 137.866 2.94311 142.755 3.22802 147.613C3.65167 154.843 4.40493 162.055 5.0747 169.267C5.42674 173.069 5.55059 176.94 6.39787 180.636C7.87763 187.091 9.52894 193.544 11.6964 199.793C13.2701 204.333 15.4808 208.732 17.9599 212.863C21.8771 219.388 23.9446 226.165 23.8432 233.868C23.7417 241.572 22.7722 249.113 21.3371 256.622C19.4263 266.632 17.3394 276.604 15.3033 286.586C14.9736 288.205 14.4291 289.784 14.1457 291.405C13.8161 293.258 13.6654 295.139 13.4372 297.002C14.1606 297.429 14.5529 297.781 15.0109 297.916C21.9637 299.975 28.9149 302.042 35.8931 304.012C37.2192 304.384 38.6677 304.452 40.0579 304.426C47.9609 304.265 55.8832 304.258 63.7713 303.749C69.0638 303.411 74.3653 302.794 79.2103 300.013C82.5443 298.103 85.2935 295.601 87.2103 292.508C88.2739 290.794 88.1889 288.073 87.9382 285.884C86.548 273.751 85.1249 261.614 83.3677 249.532C81.9446 239.79 81.4568 230.04 81.4165 220.214C81.3748 211.335 83.8853 203.458 88.9377 196.208C93.1666 190.141 97.3837 184.034 101.095 177.651C103.576 173.391 105.557 168.738 107.059 164.038C109.19 157.349 105.361 147.471 99.6764 143.278C89.7879 135.992 79.3595 129.594 68.2867 124.259C63.7594 122.076 59.0814 120.264 53.9798 120.641C50.9577 120.867 47.8654 121.427 45.0237 122.441C40.2264 124.15 35.5709 126.277 30.9034 128.34C25.308 130.813 19.7336 133.345 14.2084 135.974C12.3885 136.841 10.5821 137.899 9.05754 139.203C6.8215 141.113 6.86775 143.676 8.76966 145.967C10.6044 148.182 13.1329 149.327 15.803 149.436C23.433 149.746 31.1272 150.24 38.5662 147.847C40.9753 147.071 43.2904 145.977 45.5771 144.878C47.8028 143.808 48.21 143.831 49.5779 145.913C51.1844 148.354 52.6269 150.92 54.402 153.231C59.9422 160.43 66.522 165.991 76.1897 166.513C77.119 166.564 78.011 167.312 78.7972 168.187C75.8675 169.556 73.1183 168.908 70.4213 167.949C65.5151 166.209 61.3786 163.23 57.7016 159.616C56.4352 158.37 55.3612 156.932 54.1693 155.546C48.2398 159.088 44.254 163.834 40.0027 168.413C35.6619 173.086 33.7108 178.987 30.5409 184.341C29.3998 181.592 30.3052 179.153 31.1689 176.728C32.9231 171.826 35.9259 167.7 39.5791 164.096C43.4634 160.267 47.576 156.666 51.8423 152.733C50.7727 151.169 49.4988 149.32 48.116 147.313ZM42.6445 120.143C49.9075 116.877 57.0885 117.216 64.1442 120.237C75.5646 125.125 86.0975 131.623 96.2186 138.802C97.1539 139.467 98.0832 140.143 99.0394 140.775C99.2154 140.891 99.5123 140.825 100.257 140.885C99.9986 137.342 99.7763 133.867 99.4765 130.396C99.105 126.094 98.5099 121.807 98.2966 117.498C97.8356 108.076 97.685 98.6382 97.1539 89.2193C96.7348 81.8641 95.874 74.5371 95.3221 67.1908C95.0088 62.9965 95.079 58.7724 94.7016 54.5856C94.0378 47.2497 93.6708 39.8497 91.7301 32.7002C91.2125 30.7961 90.2832 28.816 88.9958 27.3578C86.9582 25.0542 84.1702 25.6193 82.8889 28.3792C82.0878 30.1058 81.3002 31.9323 81.0227 33.7901C80.0949 39.9511 79.3327 46.1374 78.6405 52.3282C78.1915 56.3689 77.9737 60.4319 77.6545 64.4875C77.5769 65.5029 77.4949 66.5183 77.4486 67.5352C76.9847 78.718 76.8251 89.9246 74.5413 100.957C73.9984 103.565 73.8641 106.253 73.3808 108.877C73.1824 109.977 72.7215 111.103 72.1084 112.043C71.3059 113.276 70.0558 114.073 68.5075 113.535C67.0128 113.018 66.6086 111.911 66.619 110.237C66.6936 97.7287 66.713 85.2174 66.5668 72.7106C66.44 61.7366 66.3534 50.7521 65.7463 39.799C65.1467 28.9905 64.5515 18.1492 61.9977 7.5375C60.6298 1.87157 58.9442 1.27962 54.3513 4.96546C51.5797 7.19306 50.0254 10.0201 49.7256 13.4479C49.2497 18.9096 48.8037 24.3847 48.6993 29.8627C48.4517 42.7542 48.568 55.6561 48.2458 68.5461C47.9534 80.1419 47.2971 91.7272 46.7362 103.316C46.6318 105.473 46.0873 107.61 45.9501 109.769C45.8665 111.094 45.6249 112.074 44.1108 112.099C42.7399 112.123 41.4735 111.694 41.1453 110.21C40.5904 107.729 40.0519 105.227 39.7849 102.703C38.7363 92.8097 37.7622 82.9093 36.8269 73.0058C35.9975 64.2519 35.4143 55.4713 34.4223 46.7353C33.672 40.1554 32.5905 33.6008 31.3732 27.0894C30.6513 23.2202 30.168 23.0129 27.5038 22.9041C24.425 22.7789 22.4843 23.8062 21.7384 26.7957C20.821 30.4875 19.9902 34.303 19.9036 38.0828C19.6635 48.9241 19.6291 59.7803 19.8887 70.6231C20.0394 76.726 21.0314 82.8064 21.455 88.9092C22.0726 97.8136 22.6349 106.724 22.987 115.64C23.1406 119.592 23.4658 123.458 24.5264 127.376C30.8527 124.874 36.8537 122.747 42.6445 120.143ZM18.9594 130.25C21.5967 128.976 21.9681 128.508 21.4386 125.832C20.2706 119.899 20.554 113.923 20.5167 107.948C20.5108 106.8 20.39 105.649 20.4735 104.511C20.7688 100.468 17.6258 98.9707 13.4133 99.7237C11.574 100.053 9.71984 100.794 8.09091 101.729C4.52129 103.779 2.21366 106.324 2.46128 111.155C2.89238 119.617 5.1851 127.61 6.85132 135.875C11.1504 133.883 15.084 132.122 18.9594 130.25Z"/>
</mask>
<path fill-rule="evenodd" clip-rule="evenodd" d="M70.202 110.562C70.381 109.852 70.6287 109.153 70.7331 108.431C71.2507 104.775 71.8116 101.122 72.2054 97.4513C73.1228 88.86 74.3817 80.2746 74.7189 71.6564C75.1843 59.928 75.9584 48.2696 78.187 36.7394C78.9373 32.8523 79.8354 28.9607 82.3041 25.7251C84.5402 22.7863 86.1721 22.5567 89.0868 24.8201C91.8927 27 93.7245 29.8941 94.3271 33.4323C95.1177 38.0634 96.0426 42.6931 96.4722 47.363C97.3643 56.9817 98.0833 66.6197 98.6441 76.2652C99.1722 85.4276 99.4004 94.6079 99.7644 103.779C99.7763 104.036 99.7868 104.291 99.8136 104.546C100.443 111.124 101.155 117.692 101.678 124.278C102.159 130.367 102.375 136.479 102.866 142.57C102.943 143.559 103.696 144.602 104.383 145.416C109.32 151.294 110.957 158.247 109.474 165.468C108.495 170.232 106.204 174.884 103.74 179.15C99.915 185.762 95.5697 192.089 91.217 198.378C86.3421 205.431 83.8271 213.032 83.9838 221.689C84.1568 231.254 84.2314 240.783 85.7708 250.273C87.258 259.439 88.3887 268.661 89.5344 277.878C90.0863 282.293 90.4413 286.743 90.5979 291.184C90.6457 292.577 90.0728 294.225 89.2464 295.367C85.9394 299.938 81.5419 303.184 76.0763 304.715C73.6493 305.394 71.0687 305.525 68.5656 305.929C58.6698 307.528 48.6993 306.831 38.7527 306.94C38.1247 306.943 37.4758 306.824 36.8687 306.649C29.8905 304.642 22.8259 302.889 15.979 300.509C10.6716 298.659 9.90782 297.417 11.0012 291.418C12.7659 281.776 15.1988 272.263 17.1693 262.656C19.3994 251.793 21.5669 240.919 21.0731 229.714C20.8926 225.7 20.3273 221.854 18.4388 218.27C16.419 214.433 14.4157 210.592 12.393 206.756C8.42655 199.231 6.60221 191 4.53025 182.852C2.47768 174.779 2.47023 166.468 1.74079 158.245C1.42605 154.694 1.11577 151.134 1.0397 147.575C0.902461 141.077 0.945725 134.574 0.905449 128.074C0.890532 125.301 0.945735 122.525 0.804025 119.759C0.590712 115.573 0.126759 111.398 0.00145681 107.21C-0.0313604 106.053 0.493737 104.655 1.22616 103.739C3.59795 100.776 6.86475 99.0885 10.3687 97.7123C13.3685 96.5343 16.0954 97.086 18.8789 98.2222C19.0519 98.2938 19.3368 98.094 19.8798 97.921C19.6933 95.7232 19.5128 93.4538 19.3025 91.1875C18.5596 83.1911 17.4558 75.2081 17.1485 67.1953C16.7711 57.3783 16.8755 47.5315 17.1485 37.7101C17.2649 33.5471 18.1032 29.3543 19.0414 25.2748C19.8171 21.8887 21.9741 20.3574 24.9172 20.2113C29.2133 19.9996 31.5135 21.1954 32.944 24.6471C33.6257 26.2857 34.1344 28.0318 34.4491 29.7763C36.0288 38.5659 37.1983 47.3884 37.5727 56.345C37.8606 63.2067 39.1002 70.0252 39.7342 76.878C40.5994 86.276 41.2632 95.6919 42.0956 105.09C42.2298 106.615 42.7922 108.103 43.1591 109.606C43.4962 109.575 43.8334 109.547 44.169 109.515C44.263 108.076 44.4271 106.636 44.439 105.194C44.4882 99.7028 44.3614 94.2039 44.5375 88.7154C44.794 80.6861 45.4921 72.6688 45.5787 64.6411C45.7591 47.9162 45.5965 31.1898 46.7392 14.4857C47.1285 8.74522 49.3094 4.11408 54.3245 1.09921C57.5241 -0.82572 60.3181 -0.218852 62.205 2.89144C63.1761 4.49729 63.9056 6.33571 64.3471 8.16521C67.2574 20.1308 67.9884 32.3468 68.2912 44.6001C68.5015 52.8918 68.6134 61.1849 68.8043 69.4736C68.9147 74.1942 69.1608 78.9103 69.2324 83.6309C69.307 88.5961 69.3518 93.5657 69.216 98.5278C69.1041 102.524 68.8043 106.508 69.2906 110.477C69.6009 110.505 69.9022 110.534 70.202 110.562ZM48.116 147.313C42.6132 150.842 36.715 151.795 30.7662 152.186C26.0733 152.494 21.3043 152.567 16.6368 152.096C11.4979 151.576 7.70308 148.485 5.22388 143.979C4.71522 143.05 4.67792 141.76 4.71521 140.648C4.85394 136.61 4.90021 136.612 3.17581 132.389C3.17581 137.866 2.94311 142.755 3.22802 147.613C3.65167 154.843 4.40493 162.055 5.0747 169.267C5.42674 173.069 5.55059 176.94 6.39787 180.636C7.87763 187.091 9.52894 193.544 11.6964 199.793C13.2701 204.333 15.4808 208.732 17.9599 212.863C21.8771 219.388 23.9446 226.165 23.8432 233.868C23.7417 241.572 22.7722 249.113 21.3371 256.622C19.4263 266.632 17.3394 276.604 15.3033 286.586C14.9736 288.205 14.4291 289.784 14.1457 291.405C13.8161 293.258 13.6654 295.139 13.4372 297.002C14.1606 297.429 14.5529 297.781 15.0109 297.916C21.9637 299.975 28.9149 302.042 35.8931 304.012C37.2192 304.384 38.6677 304.452 40.0579 304.426C47.9609 304.265 55.8832 304.258 63.7713 303.749C69.0638 303.411 74.3653 302.794 79.2103 300.013C82.5443 298.103 85.2935 295.601 87.2103 292.508C88.2739 290.794 88.1889 288.073 87.9382 285.884C86.548 273.751 85.1249 261.614 83.3677 249.532C81.9446 239.79 81.4568 230.04 81.4165 220.214C81.3748 211.335 83.8853 203.458 88.9377 196.208C93.1666 190.141 97.3837 184.034 101.095 177.651C103.576 173.391 105.557 168.738 107.059 164.038C109.19 157.349 105.361 147.471 99.6764 143.278C89.7879 135.992 79.3595 129.594 68.2867 124.259C63.7594 122.076 59.0814 120.264 53.9798 120.641C50.9577 120.867 47.8654 121.427 45.0237 122.441C40.2264 124.15 35.5709 126.277 30.9034 128.34C25.308 130.813 19.7336 133.345 14.2084 135.974C12.3885 136.841 10.5821 137.899 9.05754 139.203C6.8215 141.113 6.86775 143.676 8.76966 145.967C10.6044 148.182 13.1329 149.327 15.803 149.436C23.433 149.746 31.1272 150.24 38.5662 147.847C40.9753 147.071 43.2904 145.977 45.5771 144.878C47.8028 143.808 48.21 143.831 49.5779 145.913C51.1844 148.354 52.6269 150.92 54.402 153.231C59.9422 160.43 66.522 165.991 76.1897 166.513C77.119 166.564 78.011 167.312 78.7972 168.187C75.8675 169.556 73.1183 168.908 70.4213 167.949C65.5151 166.209 61.3786 163.23 57.7016 159.616C56.4352 158.37 55.3612 156.932 54.1693 155.546C48.2398 159.088 44.254 163.834 40.0027 168.413C35.6619 173.086 33.7108 178.987 30.5409 184.341C29.3998 181.592 30.3052 179.153 31.1689 176.728C32.9231 171.826 35.9259 167.7 39.5791 164.096C43.4634 160.267 47.576 156.666 51.8423 152.733C50.7727 151.169 49.4988 149.32 48.116 147.313ZM42.6445 120.143C49.9075 116.877 57.0885 117.216 64.1442 120.237C75.5646 125.125 86.0975 131.623 96.2186 138.802C97.1539 139.467 98.0832 140.143 99.0394 140.775C99.2154 140.891 99.5123 140.825 100.257 140.885C99.9986 137.342 99.7763 133.867 99.4765 130.396C99.105 126.094 98.5099 121.807 98.2966 117.498C97.8356 108.076 97.685 98.6382 97.1539 89.2193C96.7348 81.8641 95.874 74.5371 95.3221 67.1908C95.0088 62.9965 95.079 58.7724 94.7016 54.5856C94.0378 47.2497 93.6708 39.8497 91.7301 32.7002C91.2125 30.7961 90.2832 28.816 88.9958 27.3578C86.9582 25.0542 84.1702 25.6193 82.8889 28.3792C82.0878 30.1058 81.3002 31.9323 81.0227 33.7901C80.0949 39.9511 79.3327 46.1374 78.6405 52.3282C78.1915 56.3689 77.9737 60.4319 77.6545 64.4875C77.5769 65.5029 77.4949 66.5183 77.4486 67.5352C76.9847 78.718 76.8251 89.9246 74.5413 100.957C73.9984 103.565 73.8641 106.253 73.3808 108.877C73.1824 109.977 72.7215 111.103 72.1084 112.043C71.3059 113.276 70.0558 114.073 68.5075 113.535C67.0128 113.018 66.6086 111.911 66.619 110.237C66.6936 97.7287 66.713 85.2174 66.5668 72.7106C66.44 61.7366 66.3534 50.7521 65.7463 39.799C65.1467 28.9905 64.5515 18.1492 61.9977 7.5375C60.6298 1.87157 58.9442 1.27962 54.3513 4.96546C51.5797 7.19306 50.0254 10.0201 49.7256 13.4479C49.2497 18.9096 48.8037 24.3847 48.6993 29.8627C48.4517 42.7542 48.568 55.6561 48.2458 68.5461C47.9534 80.1419 47.2971 91.7272 46.7362 103.316C46.6318 105.473 46.0873 107.61 45.9501 109.769C45.8665 111.094 45.6249 112.074 44.1108 112.099C42.7399 112.123 41.4735 111.694 41.1453 110.21C40.5904 107.729 40.0519 105.227 39.7849 102.703C38.7363 92.8097 37.7622 82.9093 36.8269 73.0058C35.9975 64.2519 35.4143 55.4713 34.4223 46.7353C33.672 40.1554 32.5905 33.6008 31.3732 27.0894C30.6513 23.2202 30.168 23.0129 27.5038 22.9041C24.425 22.7789 22.4843 23.8062 21.7384 26.7957C20.821 30.4875 19.9902 34.303 19.9036 38.0828C19.6635 48.9241 19.6291 59.7803 19.8887 70.6231C20.0394 76.726 21.0314 82.8064 21.455 88.9092C22.0726 97.8136 22.6349 106.724 22.987 115.64C23.1406 119.592 23.4658 123.458 24.5264 127.376C30.8527 124.874 36.8537 122.747 42.6445 120.143ZM18.9594 130.25C21.5967 128.976 21.9681 128.508 21.4386 125.832C20.2706 119.899 20.554 113.923 20.5167 107.948C20.5108 106.8 20.39 105.649 20.4735 104.511C20.7688 100.468 17.6258 98.9707 13.4133 99.7237C11.574 100.053 9.71984 100.794 8.09091 101.729C4.52129 103.779 2.21366 106.324 2.46128 111.155C2.89238 119.617 5.1851 127.61 6.85132 135.875C11.1504 133.883 15.084 132.122 18.9594 130.25Z" stroke="#43936C" stroke-width="12" mask="url(#path-1-inside-1_1444_26213)"/>
<path fill-rule="evenodd" clip-rule="evenodd" d="M50.9998 279.2C61.6037 279.2 70.1998 270.604 70.1998 260C70.1998 249.396 61.6037 240.8 50.9998 240.8C40.3959 240.8 31.7998 249.396 31.7998 260C31.7998 270.604 40.3959 279.2 50.9998 279.2ZM59.8969 256.897C60.8341 255.96 60.8341 254.44 59.8969 253.503C58.9596 252.565 57.44 252.565 56.5028 253.503L48.5998 261.406L45.4969 258.303C44.5596 257.365 43.04 257.365 42.1027 258.303C41.1655 259.24 41.1655 260.76 42.1027 261.697L46.9027 266.497C47.84 267.434 49.3596 267.434 50.2969 266.497L59.8969 256.897Z" fill="#43936C"/>
</svg>
