<svg width="110" height="307" viewBox="0 0 110 307" fill="none" xmlns="http://www.w3.org/2000/svg">
<mask id="path-1-inside-1_1444_26215" fill="white">
<path fill-rule="evenodd" clip-rule="evenodd" d="M70.0642 110.539C70.3075 109.805 70.6791 109.088 70.7761 108.334C71.188 105.177 71.2342 101.945 71.9416 98.8607C73.9801 89.9834 73.7443 80.8974 74.6814 71.9232C75.632 62.8268 75.9365 53.6617 76.9557 44.5757C77.5079 39.6688 78.7659 34.8051 80.1105 30.0339C80.6656 28.0487 82.1788 26.2903 83.4308 24.5527C84.4725 23.1105 85.8394 23.0583 87.4899 23.8771C91.2401 25.7384 93.2681 29.0077 94.2635 32.729C96.2378 40.1162 96.7183 47.7704 97.4227 55.3605C97.8107 59.5456 97.6734 63.7768 97.9853 67.9708C98.5255 75.3208 99.6074 82.6514 99.7686 90.0058C100.019 101.226 100.24 112.42 101.549 123.588C102.286 129.892 102.417 136.267 102.97 142.596C103.055 143.591 103.783 144.641 104.46 145.462C109.237 151.251 110.868 158.138 109.572 165.174C108.669 170.059 106.229 174.832 103.707 179.21C99.8969 185.83 95.4111 192.059 91.2177 198.462C88.4151 202.744 85.5529 207.085 84.762 212.221C83.1607 222.62 83.8397 233.073 84.7918 243.484C85.2574 248.544 86.299 253.55 86.9766 258.595C88.2316 267.92 89.5239 277.237 90.5506 286.586C90.8357 289.163 91.0461 292.301 89.8657 294.361C87.8764 297.833 84.9082 300.749 81.0939 302.659C77.0169 304.704 72.7892 305.581 68.2854 306.134C58.3451 307.363 48.3989 306.892 38.4512 306.988C37.9483 306.996 37.432 306.883 36.9455 306.741C29.9719 304.726 22.9462 302.877 16.0502 300.622C11.1002 299.002 10.363 297.457 10.8376 292.303C10.8868 291.798 10.9764 291.291 11.0853 290.793C13.1447 281.206 15.2668 271.625 17.2605 262.023C19.4945 251.287 21.4598 240.523 21.0196 229.458C20.8659 225.562 20.2287 221.849 18.4603 218.381C16.7217 214.976 14.8967 211.614 13.0761 208.248C8.27978 199.383 6.03087 189.67 3.85509 179.971C2.96717 176.02 2.75376 171.902 2.41948 167.846C1.86435 161.128 1.2898 154.409 1.04804 147.676C0.809276 141.057 1.00031 134.422 0.960013 127.795C0.940613 125.014 0.86152 122.23 0.71229 119.45C0.494413 115.389 0.0571595 111.335 0.000451881 107.273C-0.0189481 105.999 0.588418 104.467 1.41516 103.483C4.2192 100.157 8.01115 98.4565 12.1478 97.2349C15.1056 96.3624 17.3306 98.003 19.8526 98.6787C20.3287 98.804 20.7823 99.0098 21.427 99.2454C28.411 93.0365 36.0531 92.9097 43.8579 97.393C44.1981 96.8382 44.4279 96.6369 44.4354 96.4266C44.8249 87.5046 45.3382 78.5856 45.5292 69.6577C45.8247 55.8706 45.8471 42.079 46.0904 28.2918C46.1769 23.4491 46.5694 18.6137 46.8365 13.7724C47.1171 8.60596 49.2675 4.46565 53.5862 1.5036C57.2274 -0.999086 60.4284 -0.392072 62.5565 3.43354C63.4145 4.97274 64.0473 6.69688 64.4562 8.41654C67.2841 20.2618 67.8929 32.371 68.36 44.4668C68.6943 53.0144 68.5958 61.5799 68.7271 70.135C68.8734 79.6998 69.1017 89.2616 69.2077 98.8263C69.2524 102.692 68.9719 106.567 69.2644 110.42C69.5285 110.464 69.7971 110.502 70.0642 110.539ZM39.8301 168.599C35.5696 173.24 33.6624 179.043 30.6539 185.005C29.1482 181.825 30.1898 179.458 30.9613 177.172C32.6715 172.117 35.871 167.989 39.4496 164.121C40.1122 163.402 40.7046 162.616 41.6418 161.483C40.5822 161.381 40.0047 161.296 39.4272 161.277C34.6936 161.107 30.9658 159.168 29.0766 154.719C28.214 152.688 27.0649 152.055 25.0145 152.175C22.7208 152.309 20.4167 152.234 18.1171 152.191C12.497 152.085 8.41259 149.238 5.59362 144.634C4.81463 143.356 4.73107 141.455 4.84448 139.876C5.0161 137.37 4.52363 135.147 3.29696 132.812C3.29696 138.103 3.09848 143.154 3.34471 148.185C3.69689 155.428 4.29232 162.666 4.9564 169.887C5.33246 173.932 5.8294 177.993 6.68001 181.959C7.71717 186.814 9.11994 191.599 10.4884 196.379C12.3239 202.798 15.4115 208.664 18.7647 214.397C21.3016 218.73 23.4192 223.295 23.6505 228.336C23.946 234.823 24.0549 241.332 22.7835 247.788C20.2212 260.785 17.8111 273.814 15.2787 286.818C14.8176 289.193 13.9296 291.481 13.4655 293.851C12.9358 296.556 13.4208 297.612 15.7622 298.316C22.4612 300.345 29.2064 302.225 35.9561 304.09C37.1679 304.419 38.4811 304.509 39.7406 304.488C47.7796 304.324 55.8306 304.324 63.8473 303.799C69.0107 303.46 74.174 302.862 78.9405 300.192C82.2982 298.307 84.8097 295.712 87.1168 292.832C87.7511 292.039 88.0018 290.683 87.9301 289.619C87.5884 284.545 87.2302 279.462 86.596 274.415C85.2395 263.553 83.3816 252.741 82.3579 241.852C81.5834 233.619 81.6356 225.295 81.5863 217.013C81.5371 209.343 84.5739 202.659 88.8255 196.41C93.1308 190.083 97.5495 183.804 101.386 177.194C103.859 172.934 106.433 168.259 107.068 163.516C108.045 156.146 107.045 148.671 100.209 143.654C90.1059 136.231 79.5016 129.622 68.1705 124.213C63.6324 122.049 58.9481 120.239 53.8414 120.645C50.821 120.887 47.7334 121.462 44.889 122.48C40.0928 124.196 35.4353 126.325 30.7673 128.387C25.1682 130.86 19.5855 133.376 14.0654 136.025C12.1389 136.953 10.2586 138.144 8.66478 139.561C6.78895 141.227 6.80986 143.374 8.26784 145.415C10.1153 147.997 12.8358 149.345 15.7995 149.459C23.5595 149.757 31.3881 150.272 38.9392 147.738C41.1016 147.013 43.2147 146.089 45.2442 145.056C47.9125 143.702 47.9229 143.643 49.7032 146.336C51.2433 148.668 52.6818 151.086 54.398 153.287C59.9777 160.443 66.532 166.074 76.226 166.496C77.4019 166.548 77.4019 166.628 78.7465 168.721C75.8096 169.525 73.1518 168.943 70.5433 168.024C65.5082 166.244 61.3029 163.161 57.4916 159.49C56.2216 158.263 54.9845 157.001 53.7145 155.738C48.1423 159.287 44.0727 163.978 39.8301 168.599ZM50.0688 11.6709C49.3451 15.0118 49.0824 18.4959 49.0153 21.9233C48.7123 36.8588 48.6482 51.7989 48.3109 66.7314C48.1318 74.6288 47.5722 82.5171 47.1678 90.4085C46.9022 95.6256 46.741 100.855 46.2605 106.054C46.0172 108.692 45.1099 111.261 44.6204 113.884C44.3235 115.459 44.2518 117.076 44.0548 118.946C45.1561 118.878 45.7859 118.954 46.3396 118.785C52.5222 116.922 58.5302 117.82 64.2621 120.311C75.7783 125.31 86.4528 131.81 96.6273 139.147C97.5346 139.8 98.4897 140.392 99.9581 141.369C99.9581 139.171 100.063 137.463 99.9402 135.771C99.6701 132.094 99.2911 128.426 98.9478 124.753C98.63 121.334 98.2987 117.917 97.9614 114.5C97.9122 113.996 97.7585 113.495 97.7361 112.989C97.5033 108.029 97.3272 103.065 97.0645 98.1059C96.5184 87.8074 95.9229 77.5073 95.3573 67.2087C95.1216 62.8909 95.0499 58.5567 94.6381 54.2538C93.9247 46.792 93.5203 39.275 91.5803 31.9862C91.2535 30.7707 90.6805 29.5969 90.0552 28.4977C89.1001 26.8108 87.575 26.0293 85.6111 25.9965C83.5457 25.9622 83.1816 27.646 82.5787 28.9705C80.2627 34.0489 79.7165 39.5658 79.236 44.9918C78.4167 54.2419 78.1973 63.5457 77.487 72.8062C76.8244 81.4209 75.9245 90.0207 74.9724 98.6101C74.5531 102.388 73.8487 106.149 73.0429 109.866C72.7922 111.009 71.9789 112.27 71.0417 112.945C70.2911 113.482 68.854 113.531 67.9213 113.21C66.8752 112.846 66.5558 111.826 66.5558 110.434C66.5603 96.6697 66.4171 82.9019 66.2454 69.1372C66.1395 60.5866 65.9932 52.0345 65.7201 43.4884C65.3411 31.6268 64.8576 19.7651 62.0252 8.15851C61.5566 6.2375 60.7761 4.39256 60.1777 2.61473C54.9084 3.27396 51.1881 6.50447 50.0688 11.6709ZM18.5916 130.431C21.8374 128.879 21.8105 128.589 21.324 125.139C20.8405 121.753 20.5406 118.329 20.3899 114.912C20.2361 111.471 20.3824 108.018 20.3645 104.573C20.348 101.025 17.6768 98.5862 14.2371 99.4244C11.6733 100.049 9.13038 101.116 6.8576 102.46C3.72525 104.315 2.17476 107.025 2.44337 111.041C2.86719 117.352 5.23995 131.215 7.25457 135.643C11.1913 133.842 14.9146 132.188 18.5916 130.431ZM41.3926 120.242C41.8865 113.303 42.382 106.393 42.9147 98.9949C38.3363 96.5116 33.3789 95.6346 28.1812 98.5504C27.735 98.7995 27.3276 99.1231 26.8635 99.3185C23.9027 100.564 22.8238 102.685 23.0476 105.938C23.4714 112.018 23.5237 118.123 23.7819 124.216C23.8221 125.213 24.134 126.199 24.4041 127.658C30.4256 125.028 35.9904 122.599 41.3926 120.242ZM30.9912 152.536C31.7224 157.657 38.1229 160.545 42.2432 157.768C43.6862 156.797 44.2444 155.563 43.8355 153.864C43.543 152.647 43.3251 151.415 43.0446 150.067C38.8452 150.929 34.9115 151.733 30.9912 152.536ZM48.3825 147.659C45.0771 148.94 45.0771 148.94 46.8678 156.794C48.6258 155.638 50.2031 154.6 52.1715 153.31C50.6837 151.09 49.5092 149.344 48.3825 147.659Z"/>
</mask>
<path fill-rule="evenodd" clip-rule="evenodd" d="M70.0642 110.539C70.3075 109.805 70.6791 109.088 70.7761 108.334C71.188 105.177 71.2342 101.945 71.9416 98.8607C73.9801 89.9834 73.7443 80.8974 74.6814 71.9232C75.632 62.8268 75.9365 53.6617 76.9557 44.5757C77.5079 39.6688 78.7659 34.8051 80.1105 30.0339C80.6656 28.0487 82.1788 26.2903 83.4308 24.5527C84.4725 23.1105 85.8394 23.0583 87.4899 23.8771C91.2401 25.7384 93.2681 29.0077 94.2635 32.729C96.2378 40.1162 96.7183 47.7704 97.4227 55.3605C97.8107 59.5456 97.6734 63.7768 97.9853 67.9708C98.5255 75.3208 99.6074 82.6514 99.7686 90.0058C100.019 101.226 100.24 112.42 101.549 123.588C102.286 129.892 102.417 136.267 102.97 142.596C103.055 143.591 103.783 144.641 104.46 145.462C109.237 151.251 110.868 158.138 109.572 165.174C108.669 170.059 106.229 174.832 103.707 179.21C99.8969 185.83 95.4111 192.059 91.2177 198.462C88.4151 202.744 85.5529 207.085 84.762 212.221C83.1607 222.62 83.8397 233.073 84.7918 243.484C85.2574 248.544 86.299 253.55 86.9766 258.595C88.2316 267.92 89.5239 277.237 90.5506 286.586C90.8357 289.163 91.0461 292.301 89.8657 294.361C87.8764 297.833 84.9082 300.749 81.0939 302.659C77.0169 304.704 72.7892 305.581 68.2854 306.134C58.3451 307.363 48.3989 306.892 38.4512 306.988C37.9483 306.996 37.432 306.883 36.9455 306.741C29.9719 304.726 22.9462 302.877 16.0502 300.622C11.1002 299.002 10.363 297.457 10.8376 292.303C10.8868 291.798 10.9764 291.291 11.0853 290.793C13.1447 281.206 15.2668 271.625 17.2605 262.023C19.4945 251.287 21.4598 240.523 21.0196 229.458C20.8659 225.562 20.2287 221.849 18.4603 218.381C16.7217 214.976 14.8967 211.614 13.0761 208.248C8.27978 199.383 6.03087 189.67 3.85509 179.971C2.96717 176.02 2.75376 171.902 2.41948 167.846C1.86435 161.128 1.2898 154.409 1.04804 147.676C0.809276 141.057 1.00031 134.422 0.960013 127.795C0.940613 125.014 0.86152 122.23 0.71229 119.45C0.494413 115.389 0.0571595 111.335 0.000451881 107.273C-0.0189481 105.999 0.588418 104.467 1.41516 103.483C4.2192 100.157 8.01115 98.4565 12.1478 97.2349C15.1056 96.3624 17.3306 98.003 19.8526 98.6787C20.3287 98.804 20.7823 99.0098 21.427 99.2454C28.411 93.0365 36.0531 92.9097 43.8579 97.393C44.1981 96.8382 44.4279 96.6369 44.4354 96.4266C44.8249 87.5046 45.3382 78.5856 45.5292 69.6577C45.8247 55.8706 45.8471 42.079 46.0904 28.2918C46.1769 23.4491 46.5694 18.6137 46.8365 13.7724C47.1171 8.60596 49.2675 4.46565 53.5862 1.5036C57.2274 -0.999086 60.4284 -0.392072 62.5565 3.43354C63.4145 4.97274 64.0473 6.69688 64.4562 8.41654C67.2841 20.2618 67.8929 32.371 68.36 44.4668C68.6943 53.0144 68.5958 61.5799 68.7271 70.135C68.8734 79.6998 69.1017 89.2616 69.2077 98.8263C69.2524 102.692 68.9719 106.567 69.2644 110.42C69.5285 110.464 69.7971 110.502 70.0642 110.539ZM39.8301 168.599C35.5696 173.24 33.6624 179.043 30.6539 185.005C29.1482 181.825 30.1898 179.458 30.9613 177.172C32.6715 172.117 35.871 167.989 39.4496 164.121C40.1122 163.402 40.7046 162.616 41.6418 161.483C40.5822 161.381 40.0047 161.296 39.4272 161.277C34.6936 161.107 30.9658 159.168 29.0766 154.719C28.214 152.688 27.0649 152.055 25.0145 152.175C22.7208 152.309 20.4167 152.234 18.1171 152.191C12.497 152.085 8.41259 149.238 5.59362 144.634C4.81463 143.356 4.73107 141.455 4.84448 139.876C5.0161 137.37 4.52363 135.147 3.29696 132.812C3.29696 138.103 3.09848 143.154 3.34471 148.185C3.69689 155.428 4.29232 162.666 4.9564 169.887C5.33246 173.932 5.8294 177.993 6.68001 181.959C7.71717 186.814 9.11994 191.599 10.4884 196.379C12.3239 202.798 15.4115 208.664 18.7647 214.397C21.3016 218.73 23.4192 223.295 23.6505 228.336C23.946 234.823 24.0549 241.332 22.7835 247.788C20.2212 260.785 17.8111 273.814 15.2787 286.818C14.8176 289.193 13.9296 291.481 13.4655 293.851C12.9358 296.556 13.4208 297.612 15.7622 298.316C22.4612 300.345 29.2064 302.225 35.9561 304.09C37.1679 304.419 38.4811 304.509 39.7406 304.488C47.7796 304.324 55.8306 304.324 63.8473 303.799C69.0107 303.46 74.174 302.862 78.9405 300.192C82.2982 298.307 84.8097 295.712 87.1168 292.832C87.7511 292.039 88.0018 290.683 87.9301 289.619C87.5884 284.545 87.2302 279.462 86.596 274.415C85.2395 263.553 83.3816 252.741 82.3579 241.852C81.5834 233.619 81.6356 225.295 81.5863 217.013C81.5371 209.343 84.5739 202.659 88.8255 196.41C93.1308 190.083 97.5495 183.804 101.386 177.194C103.859 172.934 106.433 168.259 107.068 163.516C108.045 156.146 107.045 148.671 100.209 143.654C90.1059 136.231 79.5016 129.622 68.1705 124.213C63.6324 122.049 58.9481 120.239 53.8414 120.645C50.821 120.887 47.7334 121.462 44.889 122.48C40.0928 124.196 35.4353 126.325 30.7673 128.387C25.1682 130.86 19.5855 133.376 14.0654 136.025C12.1389 136.953 10.2586 138.144 8.66478 139.561C6.78895 141.227 6.80986 143.374 8.26784 145.415C10.1153 147.997 12.8358 149.345 15.7995 149.459C23.5595 149.757 31.3881 150.272 38.9392 147.738C41.1016 147.013 43.2147 146.089 45.2442 145.056C47.9125 143.702 47.9229 143.643 49.7032 146.336C51.2433 148.668 52.6818 151.086 54.398 153.287C59.9777 160.443 66.532 166.074 76.226 166.496C77.4019 166.548 77.4019 166.628 78.7465 168.721C75.8096 169.525 73.1518 168.943 70.5433 168.024C65.5082 166.244 61.3029 163.161 57.4916 159.49C56.2216 158.263 54.9845 157.001 53.7145 155.738C48.1423 159.287 44.0727 163.978 39.8301 168.599ZM50.0688 11.6709C49.3451 15.0118 49.0824 18.4959 49.0153 21.9233C48.7123 36.8588 48.6482 51.7989 48.3109 66.7314C48.1318 74.6288 47.5722 82.5171 47.1678 90.4085C46.9022 95.6256 46.741 100.855 46.2605 106.054C46.0172 108.692 45.1099 111.261 44.6204 113.884C44.3235 115.459 44.2518 117.076 44.0548 118.946C45.1561 118.878 45.7859 118.954 46.3396 118.785C52.5222 116.922 58.5302 117.82 64.2621 120.311C75.7783 125.31 86.4528 131.81 96.6273 139.147C97.5346 139.8 98.4897 140.392 99.9581 141.369C99.9581 139.171 100.063 137.463 99.9402 135.771C99.6701 132.094 99.2911 128.426 98.9478 124.753C98.63 121.334 98.2987 117.917 97.9614 114.5C97.9122 113.996 97.7585 113.495 97.7361 112.989C97.5033 108.029 97.3272 103.065 97.0645 98.1059C96.5184 87.8074 95.9229 77.5073 95.3573 67.2087C95.1216 62.8909 95.0499 58.5567 94.6381 54.2538C93.9247 46.792 93.5203 39.275 91.5803 31.9862C91.2535 30.7707 90.6805 29.5969 90.0552 28.4977C89.1001 26.8108 87.575 26.0293 85.6111 25.9965C83.5457 25.9622 83.1816 27.646 82.5787 28.9705C80.2627 34.0489 79.7165 39.5658 79.236 44.9918C78.4167 54.2419 78.1973 63.5457 77.487 72.8062C76.8244 81.4209 75.9245 90.0207 74.9724 98.6101C74.5531 102.388 73.8487 106.149 73.0429 109.866C72.7922 111.009 71.9789 112.27 71.0417 112.945C70.2911 113.482 68.854 113.531 67.9213 113.21C66.8752 112.846 66.5558 111.826 66.5558 110.434C66.5603 96.6697 66.4171 82.9019 66.2454 69.1372C66.1395 60.5866 65.9932 52.0345 65.7201 43.4884C65.3411 31.6268 64.8576 19.7651 62.0252 8.15851C61.5566 6.2375 60.7761 4.39256 60.1777 2.61473C54.9084 3.27396 51.1881 6.50447 50.0688 11.6709ZM18.5916 130.431C21.8374 128.879 21.8105 128.589 21.324 125.139C20.8405 121.753 20.5406 118.329 20.3899 114.912C20.2361 111.471 20.3824 108.018 20.3645 104.573C20.348 101.025 17.6768 98.5862 14.2371 99.4244C11.6733 100.049 9.13038 101.116 6.8576 102.46C3.72525 104.315 2.17476 107.025 2.44337 111.041C2.86719 117.352 5.23995 131.215 7.25457 135.643C11.1913 133.842 14.9146 132.188 18.5916 130.431ZM41.3926 120.242C41.8865 113.303 42.382 106.393 42.9147 98.9949C38.3363 96.5116 33.3789 95.6346 28.1812 98.5504C27.735 98.7995 27.3276 99.1231 26.8635 99.3185C23.9027 100.564 22.8238 102.685 23.0476 105.938C23.4714 112.018 23.5237 118.123 23.7819 124.216C23.8221 125.213 24.134 126.199 24.4041 127.658C30.4256 125.028 35.9904 122.599 41.3926 120.242ZM30.9912 152.536C31.7224 157.657 38.1229 160.545 42.2432 157.768C43.6862 156.797 44.2444 155.563 43.8355 153.864C43.543 152.647 43.3251 151.415 43.0446 150.067C38.8452 150.929 34.9115 151.733 30.9912 152.536ZM48.3825 147.659C45.0771 148.94 45.0771 148.94 46.8678 156.794C48.6258 155.638 50.2031 154.6 52.1715 153.31C50.6837 151.09 49.5092 149.344 48.3825 147.659Z" stroke="#43936C" stroke-width="12" mask="url(#path-1-inside-1_1444_26215)"/>
<path fill-rule="evenodd" clip-rule="evenodd" d="M50.9998 279.2C61.6037 279.2 70.1998 270.604 70.1998 260C70.1998 249.396 61.6037 240.8 50.9998 240.8C40.3959 240.8 31.7998 249.396 31.7998 260C31.7998 270.604 40.3959 279.2 50.9998 279.2ZM59.8969 256.897C60.8341 255.96 60.8341 254.44 59.8969 253.503C58.9596 252.565 57.44 252.565 56.5028 253.503L48.5998 261.406L45.4969 258.303C44.5596 257.365 43.04 257.365 42.1027 258.303C41.1655 259.24 41.1655 260.76 42.1027 261.697L46.9027 266.497C47.84 267.434 49.3596 267.434 50.2969 266.497L59.8969 256.897Z" fill="#43936C"/>
</svg>
