<svg width="17" height="48" viewBox="0 0 17 48" fill="none" xmlns="http://www.w3.org/2000/svg">
<path fill-rule="evenodd" clip-rule="evenodd" d="M10.793 17.0374C10.8304 16.9243 10.8877 16.8137 10.9026 16.6976C10.9661 16.211 10.9732 15.7128 11.0822 15.2374C11.3962 13.8692 11.3599 12.4688 11.5042 11.0856C11.6507 9.68353 11.6976 8.27091 11.8546 6.87048C11.9396 6.11417 12.1334 5.36453 12.3405 4.62914C12.426 4.32317 12.6591 4.05214 12.852 3.78433C13.0125 3.56203 13.223 3.55398 13.4773 3.68019C14.055 3.96708 14.3674 4.47098 14.5207 5.04453C14.8248 6.18313 14.8989 7.36288 15.0074 8.53274C15.0671 9.17779 15.046 9.82996 15.094 10.4764C15.1773 11.6092 15.3439 12.7391 15.3687 13.8726C15.4074 15.602 15.4414 17.3273 15.643 19.0486C15.7566 20.0203 15.7768 21.0029 15.8618 21.9785C15.8749 22.1318 15.9871 22.2936 16.0915 22.4201C16.8273 23.3125 17.0786 24.3738 16.8788 25.4584C16.7398 26.2113 16.3639 26.9469 15.9754 27.6218C15.3885 28.642 14.6975 29.6022 14.0515 30.5891C13.6198 31.2491 13.1789 31.9181 13.0571 32.7098C12.8104 34.3125 12.915 35.9237 13.0617 37.5283C13.1334 38.3083 13.2938 39.0798 13.3982 39.8574C13.5915 41.2947 13.7906 42.7307 13.9488 44.1716C13.9927 44.5688 14.0251 45.0525 13.8433 45.37C13.5368 45.9051 13.0796 46.3546 12.492 46.649C11.864 46.9642 11.2127 47.0994 10.519 47.1847C8.98772 47.3741 7.45556 47.3014 5.92318 47.3162C5.84571 47.3175 5.76617 47.3001 5.69123 47.2782C4.617 46.9677 3.53472 46.6826 2.47244 46.335C1.70992 46.0854 1.59636 45.8472 1.66947 45.0527C1.67705 44.975 1.69084 44.8969 1.70763 44.8201C2.02486 43.3424 2.35175 41.8657 2.65887 40.3857C3.003 38.731 3.30576 37.072 3.23794 35.3665C3.21426 34.766 3.1161 34.1936 2.84369 33.6592C2.57588 33.1343 2.29474 32.6162 2.01429 32.0974C1.27545 30.7309 0.929019 29.234 0.593853 27.739C0.457074 27.1301 0.4242 26.4954 0.372707 25.8701C0.287191 24.8347 0.198686 23.7991 0.161445 22.7614C0.124664 21.7412 0.154091 20.7185 0.147884 19.6971C0.144896 19.2684 0.132712 18.8394 0.109724 18.4109C0.0761613 17.785 0.00880508 17.1602 6.96095e-05 16.534C-0.00291884 16.3377 0.0906422 16.1016 0.217996 15.9498C0.649942 15.4372 1.23407 15.1751 1.8713 14.9869C2.32692 14.8524 2.66968 15.1053 3.05818 15.2094C3.13151 15.2287 3.20139 15.2604 3.3007 15.2968C4.37654 14.3398 5.55376 14.3202 6.75604 15.0112C6.80845 14.9257 6.84385 14.8947 6.845 14.8623C6.905 13.4871 6.98408 12.1124 7.0135 10.7364C7.05902 8.61136 7.06247 6.48566 7.09994 4.36064C7.11327 3.61422 7.17373 2.86894 7.21488 2.12275C7.2581 1.32644 7.58935 0.688293 8.25463 0.23175C8.81554 -0.15399 9.30863 -0.0604303 9.63644 0.529214C9.76862 0.766451 9.86609 1.03219 9.92908 1.29725C10.3647 3.12296 10.4585 4.98936 10.5304 6.85369C10.5819 8.17114 10.5668 9.49134 10.587 10.8099C10.6095 12.2842 10.6447 13.7579 10.661 15.2322C10.6679 15.828 10.6247 16.4252 10.6698 17.019C10.7104 17.0259 10.7518 17.0317 10.793 17.0374ZM6.13559 25.9862C5.47928 26.7016 5.18549 27.5961 4.72205 28.5149C4.4901 28.0248 4.65056 27.66 4.76941 27.3076C5.03285 26.5285 5.52571 25.8922 6.07697 25.2961C6.17903 25.1853 6.2703 25.0642 6.41466 24.8894C6.25145 24.8738 6.16248 24.8607 6.07352 24.8577C5.34434 24.8315 4.7701 24.5327 4.47907 23.8469C4.3462 23.5338 4.16919 23.4364 3.85333 23.4548C3.50001 23.4754 3.14507 23.464 2.79082 23.4573C1.92509 23.441 1.29591 23.0021 0.861663 22.2925C0.741665 22.0955 0.728792 21.8026 0.746263 21.5592C0.772699 21.173 0.696838 20.8302 0.507876 20.4704C0.507876 21.2858 0.477301 22.0644 0.515232 22.8398C0.569484 23.9561 0.661206 25.0717 0.763503 26.1848C0.821433 26.8083 0.897983 27.4342 1.02902 28.0455C1.18878 28.7937 1.40487 29.5312 1.61567 30.268C1.89842 31.2574 2.37405 32.1615 2.89059 33.0452C3.28139 33.713 3.60759 34.4166 3.64322 35.1936C3.68874 36.1934 3.70552 37.1966 3.50966 38.1917C3.11495 40.1949 2.7437 42.2031 2.35359 44.2075C2.28256 44.5734 2.14578 44.9261 2.07428 45.2914C1.99267 45.7084 2.06739 45.8711 2.42807 45.9796C3.46 46.2923 4.49907 46.5821 5.53882 46.8695C5.72548 46.9203 5.92778 46.9341 6.12179 46.9309C7.36016 46.9056 8.60037 46.9056 9.83529 46.8247C10.6307 46.7725 11.4261 46.6803 12.1603 46.2688C12.6775 45.9782 13.0644 45.5783 13.4198 45.1344C13.5175 45.0121 13.5561 44.8031 13.5451 44.6392C13.4925 43.8571 13.4373 43.0737 13.3396 42.2958C13.1306 40.6216 12.8444 38.9552 12.6867 37.2768C12.5674 36.0079 12.5755 34.7249 12.5679 33.4484C12.5603 32.2661 13.0281 31.236 13.683 30.2728C14.3462 29.2976 15.0269 28.3298 15.6179 27.311C15.9988 26.6545 16.3954 25.9338 16.4931 25.2028C16.6437 24.0669 16.4896 22.9148 15.4366 22.1415C13.8803 20.9973 12.2467 19.9787 10.5013 19.145C9.80218 18.8114 9.08059 18.5326 8.29394 18.5951C7.82866 18.6323 7.35304 18.7211 6.91488 18.8778C6.17605 19.1424 5.45859 19.4705 4.73952 19.7884C3.87701 20.1695 3.01703 20.5573 2.1667 20.9656C1.86992 21.1086 1.58027 21.2923 1.33476 21.5107C1.0458 21.7674 1.04902 22.0982 1.27361 22.4129C1.5582 22.8109 1.97728 23.0187 2.43382 23.0361C3.6292 23.0821 4.83515 23.1614 5.99835 22.7709C6.33145 22.6591 6.65696 22.5168 6.9696 22.3575C7.38062 22.1488 7.38223 22.1398 7.65648 22.5548C7.89371 22.9143 8.11532 23.2869 8.37968 23.6263C9.23921 24.7292 10.2488 25.597 11.7421 25.6621C11.9233 25.6701 11.9233 25.6825 12.1304 26.0051C11.678 26.129 11.2686 26.0393 10.8668 25.8977C10.0911 25.6232 9.44334 25.1481 8.85623 24.5823C8.6606 24.3931 8.47003 24.1987 8.2744 24.0039C7.41602 24.5511 6.78914 25.274 6.13559 25.9862ZM7.7128 1.79884C7.60131 2.31378 7.56085 2.85078 7.5505 3.37905C7.50384 5.68107 7.49395 7.98379 7.442 10.2854C7.41441 11.5026 7.32821 12.7184 7.26591 13.9347C7.22499 14.7388 7.20017 15.5448 7.12614 16.3462C7.08867 16.7528 6.94891 17.1487 6.87351 17.553C6.82776 17.7958 6.81672 18.045 6.78638 18.3332C6.95603 18.3227 7.05304 18.3344 7.13833 18.3084C8.09072 18.0213 9.01622 18.1597 9.89919 18.5436C11.6732 19.3142 13.3175 20.316 14.8848 21.4468C15.0246 21.5474 15.1717 21.6387 15.3979 21.7893C15.3979 21.4504 15.414 21.1872 15.3952 20.9265C15.3536 20.3596 15.2952 19.7944 15.2423 19.2282C15.1933 18.7013 15.1423 18.1746 15.0904 17.648C15.0828 17.5703 15.0591 17.493 15.0556 17.4151C15.0198 16.6505 14.9927 15.8855 14.9522 15.1211C14.8681 13.5338 14.7763 11.9462 14.6892 10.3589C14.6529 9.69341 14.6419 9.02538 14.5784 8.36217C14.4685 7.21208 14.4062 6.05348 14.1074 4.93005C14.057 4.7427 13.9688 4.56178 13.8725 4.39236C13.7253 4.13237 13.4904 4.01191 13.1879 4.00685C12.8697 4.00156 12.8136 4.2611 12.7207 4.46523C12.364 5.24798 12.2798 6.0983 12.2058 6.93461C12.0796 8.36033 12.0458 9.79433 11.9364 11.2217C11.8343 12.5494 11.6957 13.8749 11.549 15.1988C11.4845 15.7811 11.3759 16.3609 11.2518 16.9337C11.2132 17.1098 11.0879 17.3043 10.9435 17.4082C10.8279 17.491 10.6065 17.4985 10.4629 17.4491C10.3017 17.393 10.2525 17.2358 10.2525 17.0213C10.2532 14.8997 10.2311 12.7777 10.2047 10.6562C10.1884 9.33825 10.1659 8.02011 10.1238 6.70289C10.0654 4.87465 9.99092 3.04641 9.5546 1.25748C9.48242 0.961389 9.36219 0.677028 9.27001 0.40301C8.4583 0.504617 7.88521 1.00254 7.7128 1.79884ZM2.86393 20.1033C3.36392 19.8643 3.35978 19.8194 3.28484 19.2877C3.21035 18.7659 3.16415 18.2381 3.14093 17.7114C3.11725 17.1811 3.13978 16.6489 3.13702 16.1179C3.13449 15.571 2.72301 15.1951 2.19313 15.3243C1.7982 15.4207 1.40648 15.585 1.05637 15.7921C0.573852 16.0781 0.335008 16.4958 0.376386 17.1149C0.441673 18.0875 0.807183 20.2242 1.11752 20.9068C1.72395 20.6291 2.2975 20.3741 2.86393 20.1033ZM6.37627 18.533C6.45236 17.4634 6.52868 16.3983 6.61075 15.2581C5.90548 14.8754 5.14181 14.7402 4.34114 15.1896C4.2724 15.228 4.20965 15.2779 4.13815 15.308C3.68207 15.5 3.51587 15.8269 3.55035 16.3282C3.61563 17.2655 3.62368 18.2064 3.66345 19.1454C3.66966 19.2992 3.7177 19.4512 3.75931 19.676C4.68688 19.2707 5.5441 18.8962 6.37627 18.533ZM4.774 23.5104C4.88664 24.2998 5.8726 24.7449 6.50731 24.3168C6.7296 24.1672 6.81558 23.977 6.75259 23.7152C6.70753 23.5276 6.67397 23.3378 6.63075 23.1299C5.98387 23.2628 5.3779 23.3867 4.774 23.5104ZM7.45303 22.7587C6.94385 22.9562 6.94385 22.9562 7.21971 24.1667C7.4905 23.9885 7.73349 23.8285 8.0367 23.6297C7.80751 23.2876 7.62659 23.0184 7.45303 22.7587Z" fill="black"/>
</svg>
