<svg width="17" height="47" viewBox="0 0 17 47" fill="none" xmlns="http://www.w3.org/2000/svg">
<path fill-rule="evenodd" clip-rule="evenodd" d="M10.813 16.8325C10.8406 16.7244 10.8787 16.618 10.8948 16.5081C10.9745 15.9515 11.0609 15.3953 11.1216 14.8364C11.2629 13.5285 11.4568 12.2214 11.5087 10.9093C11.5804 9.12371 11.6996 7.34878 12.0429 5.59338C12.1585 5.00158 12.2968 4.40911 12.677 3.91652C13.0214 3.46909 13.2728 3.43413 13.7217 3.77872C14.1539 4.1106 14.4361 4.55121 14.5289 5.08989C14.6507 5.79496 14.7931 6.4998 14.8593 7.21077C14.9967 8.67516 15.1074 10.1425 15.1938 11.611C15.2752 13.0059 15.3103 14.4036 15.3664 15.7998C15.3682 15.8389 15.3698 15.8777 15.374 15.9165C15.4709 16.9181 15.5805 17.918 15.6612 18.9207C15.7351 19.8477 15.7685 20.7782 15.844 21.7055C15.856 21.856 15.972 22.0149 16.0777 22.1389C16.8382 23.0337 17.0903 24.0922 16.8619 25.1916C16.7112 25.9169 16.3582 26.6251 15.9787 27.2746C15.3896 28.2813 14.7203 29.2445 14.0498 30.202C13.299 31.2757 12.9116 32.433 12.9357 33.7509C12.9624 35.2072 12.9739 36.6579 13.211 38.1028C13.4401 39.4982 13.6142 40.9022 13.7907 42.3055C13.8757 42.9777 13.9304 43.655 13.9545 44.3313C13.9618 44.5433 13.8736 44.7941 13.7463 44.968C13.237 45.664 12.5596 46.1582 11.7178 46.3913C11.344 46.4946 10.9465 46.5146 10.5609 46.5761C9.03671 46.8195 7.50099 46.7134 5.96895 46.73C5.87222 46.7305 5.77227 46.7123 5.67876 46.6857C4.60394 46.3802 3.5158 46.1132 2.46119 45.7509C1.64371 45.4692 1.52607 45.2802 1.69448 44.3669C1.96629 42.8989 2.34102 41.4506 2.64454 39.988C2.98803 38.3341 3.32187 36.6786 3.24582 34.9727C3.21802 34.3616 3.13094 33.7761 2.84007 33.2304C2.52897 32.6464 2.2204 32.0616 1.90885 31.4775C1.29791 30.3318 1.01692 29.0788 0.697779 27.8382C0.381629 26.6092 0.380481 25.3439 0.268129 24.092C0.219649 23.5513 0.171859 23.0094 0.160141 22.4676C0.139003 21.4783 0.145667 20.4881 0.139463 19.4986C0.137166 19.0764 0.145668 18.6537 0.123841 18.2326C0.0909855 17.5954 0.0195243 16.9598 0.000224387 16.3222C-0.00483034 16.146 0.0760486 15.9331 0.188861 15.7937C0.55418 15.3427 1.05735 15.0857 1.59706 14.8762C2.05911 14.6968 2.47912 14.7808 2.90785 14.9538C2.9345 14.9647 2.97838 14.9343 3.06202 14.908C3.0333 14.5734 3.0055 14.2279 2.9731 13.8828C2.85868 12.6654 2.68866 11.45 2.64133 10.2301C2.5832 8.73554 2.59928 7.23642 2.64133 5.74116C2.65925 5.10737 2.78837 4.46904 2.93289 3.84796C3.05236 3.33244 3.3846 3.09931 3.83791 3.07706C4.49962 3.04483 4.85392 3.22688 5.07426 3.75239C5.17926 4.00187 5.25761 4.26769 5.30609 4.53328C5.5494 5.87146 5.72953 7.21463 5.7872 8.57823C5.83155 9.62289 6.02248 10.661 6.12013 11.7043C6.25339 13.1351 6.35563 14.5686 6.48384 15.9994C6.50452 16.2316 6.59113 16.4582 6.64765 16.687C6.69958 16.6822 6.75151 16.6779 6.8032 16.6731C6.81768 16.4541 6.84295 16.2348 6.84479 16.0153C6.85237 15.1792 6.83284 14.342 6.85996 13.5064C6.89947 12.284 7.007 11.0634 7.02033 9.84127C7.04813 7.29499 7.02308 4.74848 7.19908 2.20537C7.25905 1.33141 7.59496 0.626346 8.36742 0.167348C8.86025 -0.125711 9.29059 -0.0333191 9.58124 0.440207C9.73081 0.684688 9.84317 0.964579 9.91117 1.24311C10.3594 3.0648 10.472 4.92463 10.5187 6.79013C10.5511 8.05249 10.5683 9.31508 10.5977 10.577C10.6147 11.2957 10.6526 12.0137 10.6636 12.7324C10.6751 13.4883 10.682 14.2449 10.6611 15.0003C10.6439 15.6087 10.5977 16.2153 10.6726 16.8195C10.7204 16.8239 10.7668 16.8282 10.813 16.8325ZM7.41115 22.4276C6.56356 22.9649 5.65509 23.11 4.73881 23.1695C4.01598 23.2165 3.28143 23.2276 2.56251 23.1558C1.77099 23.0766 1.18648 22.6061 0.804617 21.92C0.726269 21.7786 0.720524 21.5823 0.726268 21.4129C0.747636 20.7982 0.754763 20.7984 0.489159 20.1556C0.489159 20.9893 0.453318 21.7337 0.497202 22.4733C0.562454 23.574 0.678477 24.672 0.78164 25.77C0.835863 26.3489 0.854939 26.9382 0.985443 27.5009C1.21337 28.4836 1.46771 29.4661 1.80155 30.4174C2.04395 31.1086 2.38445 31.7783 2.76631 32.4073C3.36966 33.4007 3.68811 34.4324 3.67249 35.6051C3.65686 36.778 3.50752 37.9262 3.28649 39.0694C2.99217 40.5932 2.67074 42.1114 2.35711 43.6312C2.30634 43.8777 2.22247 44.1181 2.17882 44.3649C2.12804 44.647 2.10483 44.9333 2.06968 45.217C2.18111 45.282 2.24154 45.3355 2.31208 45.3562C3.38299 45.6697 4.45367 45.9843 5.52849 46.2842C5.73275 46.3409 5.95585 46.3511 6.16999 46.3473C7.38726 46.3228 8.60751 46.3216 9.82248 46.2442C10.6377 46.1927 11.4542 46.0987 12.2005 45.6754C12.714 45.3846 13.1375 45.0037 13.4327 44.5329C13.5965 44.2718 13.5834 43.8575 13.5448 43.5243C13.3307 41.6772 13.1115 39.8294 12.8409 37.99C12.6217 36.5067 12.5465 35.0224 12.5403 33.5264C12.5339 32.1746 12.9206 30.9754 13.6988 29.8717C14.3501 28.948 14.9997 28.0182 15.5713 27.0464C15.9534 26.3979 16.2585 25.6894 16.4899 24.9739C16.8182 23.9556 16.2284 22.4517 15.3528 21.8134C13.8297 20.704 12.2235 19.7299 10.518 18.9177C9.82065 18.5854 9.10012 18.3096 8.31434 18.367C7.84884 18.4013 7.37255 18.4866 6.93485 18.641C6.19595 18.9011 5.47886 19.2251 4.75994 19.539C3.89811 19.9156 3.0395 20.3011 2.18847 20.7013C1.90816 20.8334 1.62992 20.9943 1.3951 21.193C1.05069 21.4838 1.05782 21.874 1.35076 22.2226C1.63337 22.56 2.02281 22.7343 2.43408 22.7509C3.60931 22.7981 4.79441 22.8732 5.94023 22.5089C6.31129 22.3909 6.66787 22.2242 7.0201 22.0569C7.3629 21.8939 7.42563 21.8976 7.63632 22.2145C7.88377 22.5861 8.10595 22.9767 8.37936 23.3286C9.23269 24.4246 10.2462 25.2713 11.7352 25.3507C11.8784 25.3584 12.0158 25.4724 12.1369 25.6057C11.6856 25.814 11.2622 25.7153 10.8468 25.5693C10.0911 25.3044 9.45395 24.8509 8.88759 24.3006C8.69252 24.1111 8.5271 23.892 8.34352 23.6811C7.43022 24.2203 6.8163 24.9428 6.16148 25.6399C5.49288 26.3514 5.19236 27.2498 4.70411 28.065C4.52835 27.6464 4.66781 27.275 4.80084 26.9059C5.07104 26.1595 5.53355 25.5314 6.09623 24.9828C6.69453 24.3998 7.32798 23.8516 7.98509 23.2528C7.82035 23.0147 7.62414 22.7332 7.41115 22.4276ZM6.56839 18.2912C7.68709 17.7938 8.79316 17.8456 9.87992 18.3055C11.639 19.0496 13.2613 20.0389 14.8202 21.1319C14.9643 21.2331 15.1074 21.336 15.2547 21.4322C15.2818 21.4499 15.3275 21.4399 15.4422 21.449C15.4024 20.9097 15.3682 20.3805 15.322 19.8521C15.2648 19.1972 15.1731 18.5445 15.1403 17.8885C15.0693 16.4541 15.0461 15.0171 14.9643 13.5832C14.8997 12.4634 14.7672 11.3479 14.6821 10.2294C14.6339 9.59089 14.6447 8.94779 14.5866 8.31037C14.4843 7.19352 14.4278 6.0669 14.1289 4.97843C14.0492 4.68855 13.906 4.38709 13.7077 4.16508C13.3939 3.81436 12.9645 3.9004 12.7671 4.32058C12.6437 4.58345 12.5224 4.86152 12.4797 5.14437C12.3368 6.08234 12.2193 7.02417 12.1127 7.96668C12.0436 8.58186 12.01 9.20044 11.9609 9.81789C11.9489 9.97248 11.9363 10.1271 11.9292 10.2819C11.8577 11.9844 11.8331 13.6905 11.4814 15.3701C11.3977 15.7672 11.377 16.1764 11.3026 16.576C11.272 16.7435 11.201 16.9149 11.1066 17.0579C10.983 17.2456 10.7905 17.3671 10.552 17.2851C10.3218 17.2064 10.2595 17.0379 10.2611 16.783C10.2726 14.8787 10.2756 12.9739 10.2531 11.0698C10.2335 9.39907 10.2202 7.72674 10.1267 6.05919C10.0343 4.41365 9.94265 2.76312 9.5493 1.14755C9.33861 0.284937 9.07898 0.194816 8.37155 0.755965C7.94466 1.09511 7.70524 1.5255 7.65906 2.04738C7.58577 2.87889 7.51707 3.71244 7.50099 4.54644C7.46285 6.5091 7.48077 8.47335 7.43114 10.4358C7.38611 12.2012 7.28501 13.965 7.19862 15.7292C7.18254 16.0577 7.09867 16.383 7.07754 16.7117C7.06467 16.9135 7.02745 17.0627 6.79424 17.0665C6.58309 17.0702 6.38802 17.0048 6.33748 16.7789C6.25201 16.4012 6.16906 16.0203 6.12794 15.636C5.96642 14.1298 5.81638 12.6225 5.67232 11.1147C5.54458 9.78202 5.45474 8.44521 5.30195 7.1152C5.18638 6.11344 5.0198 5.11554 4.83232 4.12422C4.72111 3.53515 4.64667 3.5036 4.23632 3.48703C3.76209 3.46796 3.46318 3.62436 3.3483 4.0795C3.207 4.64156 3.07902 5.22246 3.06569 5.79791C3.0287 7.44844 3.02341 9.10124 3.06339 10.752C3.0866 11.6811 3.23939 12.6068 3.30464 13.536C3.39976 14.8916 3.48639 16.2482 3.54061 17.6056C3.56427 18.2072 3.61436 18.7958 3.77772 19.3924C4.75213 19.0115 5.67646 18.6875 6.56839 18.2912ZM2.92025 19.8298C3.32647 19.636 3.38368 19.5647 3.30211 19.1572C3.12221 18.254 3.16587 17.3441 3.16012 16.4345C3.15921 16.2598 3.1406 16.0845 3.15346 15.9113C3.19896 15.2957 2.71485 15.0678 2.06601 15.1824C1.78271 15.2326 1.49711 15.3454 1.24622 15.4877C0.696399 15.7998 0.340963 16.1873 0.379103 16.9228C0.445504 18.2111 0.798644 19.428 1.05529 20.6863C1.71746 20.383 2.32334 20.1149 2.92025 19.8298Z" fill="black"/>
</svg>
