<svg width="110" height="307" viewBox="0 0 110 307" fill="none" xmlns="http://www.w3.org/2000/svg">
<mask id="path-1-inside-1_1444_26217" fill="white">
<path fill-rule="evenodd" clip-rule="evenodd" d="M71.3896 86.354C71.9402 82.4246 72.6595 78.513 73.0072 74.5627C73.5175 68.8002 73.7086 63.0071 74.1249 57.2365C74.7427 48.6 75.2948 39.9506 76.1529 31.34C76.8199 24.6383 77.7347 17.9528 78.8733 11.3253C79.4537 7.96562 80.5371 4.64142 82.8188 2.01917C84.9139 -0.385233 85.9182 -0.630531 88.4461 1.22037C91.7693 3.65221 93.6317 7.1636 94.4673 11.3931C95.397 16.1115 96.2506 20.8042 96.4461 25.6678C96.6982 31.8499 97.4727 38.0029 97.8891 44.1801C98.2263 49.1245 98.1174 54.1172 98.6501 59.0325C99.541 67.264 99.9947 75.5003 99.8783 83.7801C99.8529 85.4358 99.8932 87.0995 100.013 88.7487C100.521 95.6133 101.106 102.468 101.602 109.333C102.081 116.051 102.43 122.781 102.976 129.494C103.052 130.44 103.812 131.402 104.427 132.199C109.238 138.442 110.86 145.901 109.579 153.516C108.687 158.804 106.246 163.971 103.722 168.712C99.9156 175.875 95.4269 182.617 91.2366 189.545C88.4341 194.179 85.5496 198.873 84.7692 204.433C83.1695 215.824 83.8216 227.268 84.8736 238.666C85.369 244.004 86.3196 249.292 86.9792 254.617C88.2506 264.84 89.5683 275.062 90.6218 285.319C90.8964 287.969 91.0337 291.219 89.8801 293.325C87.8298 297.062 84.9079 300.234 81.0937 302.303C77.0199 304.516 72.7893 305.464 68.2827 306.065C58.3413 307.393 48.3969 306.883 38.4465 306.988C37.9451 306.996 37.4273 306.867 36.9408 306.717C30.0824 304.588 23.1434 302.716 16.4074 300.217C10.1906 297.912 10.6144 296.689 10.9218 290.262C10.9368 289.986 11.0338 289.718 11.0875 289.45C13.1513 279.074 15.2792 268.711 17.2669 258.319C19.4575 246.836 21.4408 235.325 21.0289 223.49C20.8722 218.99 20.1873 214.731 18.2861 210.716C15.5583 204.943 12.3201 199.369 10.2667 193.327C7.54636 185.328 5.58702 177.002 3.65305 168.72C2.78754 165.013 2.68757 161.078 2.41747 157.231C1.89966 149.822 1.35647 142.407 1.10129 134.983C0.858057 127.818 0.726747 120.63 1.02371 113.474C1.16249 110.133 1.09384 106.93 0.674516 103.624C0.146257 99.4071 0.0149333 95.1115 1.07156e-05 90.8513C-0.0029738 89.4732 0.617804 87.8273 1.45347 86.7638C4.26786 83.1798 8.05969 81.3338 12.2037 80.0315C15.1569 79.1036 17.3863 80.8948 19.9082 81.6355C20.3798 81.7743 20.8334 81.976 21.4527 82.2084C28.8006 75.1614 36.6812 75.4664 44.5349 80.6818C45.4974 79.9541 46.1466 79.5119 46.745 79.0036C50.398 75.894 54.4256 74.8096 58.9561 76.2571C61.2721 76.9994 63.5731 77.8208 65.922 78.4146C68.5289 79.0714 69.6765 81.0788 70.3987 83.5478C70.6569 84.4288 70.7285 85.3728 70.8822 86.2894C71.0508 86.3088 71.2195 86.3314 71.3896 86.354ZM53.7436 143.395C48.2432 147.029 44.2335 152.123 39.9761 157.069C35.6291 162.122 33.7549 168.534 30.4958 174.221C29.1423 169.219 31.2135 165.028 33.3505 161.155C35.5471 157.174 38.4958 153.679 41.3504 149.643C40.5819 149.527 39.9268 149.365 39.2673 149.336C34.5114 149.114 30.833 146.9 29.0184 142.076C28.135 139.73 26.786 139.422 24.855 139.501C22.6853 139.59 20.5111 139.519 18.3428 139.507C12.7155 139.478 8.59392 136.469 5.7079 131.533C4.90208 130.159 4.71107 128.105 4.84239 126.419C5.04981 123.688 4.52901 121.26 3.25761 118.282C3.25761 124.239 3.05616 129.596 3.30238 134.931C3.67843 142.904 4.22757 150.877 4.97818 158.818C5.46913 164.011 6.27047 169.188 7.25536 174.299C8.11043 178.746 9.10726 183.217 10.598 187.45C12.6812 193.353 14.6525 199.483 17.7922 204.733C24.0582 215.206 24.9267 226.553 23.2792 238.178C21.0378 253.968 18.0101 269.627 15.2598 285.329C14.833 287.765 13.9675 290.107 13.5064 292.534C12.9095 295.677 13.3826 296.836 15.9149 297.664C22.6196 299.852 29.3602 301.906 36.1186 303.885C37.5661 304.307 39.1539 304.311 40.6715 304.278C48.3268 304.099 55.994 304.067 63.6298 303.552C68.9363 303.195 74.2159 302.495 79.0822 299.553C82.4427 297.517 84.9199 294.657 87.209 291.529C87.8343 290.67 88.0118 289.179 87.9327 288.02C87.5686 282.526 87.1299 277.038 86.5539 271.577C85.7481 263.913 84.7886 256.273 83.9022 248.624C83.159 242.203 82.0846 235.801 81.7742 229.356C81.419 221.922 81.5832 214.442 81.804 206.994C82.0831 197.842 86.7539 190.649 91.2873 183.429C94.2256 178.749 97.028 173.971 99.9842 169.306C103.204 164.228 105.264 158.58 106.92 152.774C107.501 150.739 107.275 148.438 107.411 146.257C107.419 146.127 107.341 145.994 107.313 145.86C104.874 132.568 105.298 134.255 94.4644 125.827C86.1719 119.372 77.2736 113.903 68.029 109.146C63.6105 106.87 59.0367 104.944 54.0645 105.371C50.9203 105.642 47.7358 106.344 44.7409 107.414C40.7506 108.838 36.8871 110.714 33.0431 112.564C26.5159 115.704 20.0261 118.938 13.5587 122.222C12.0739 122.975 10.6204 123.934 9.36542 125.076C6.53162 127.658 6.55998 130.277 9.13263 133.24C11.0024 135.391 13.4348 136.456 15.9642 136.561C23.8582 136.888 31.8104 137.377 39.4657 134.526C41.5042 133.769 43.4724 132.762 45.3975 131.705C47.7731 130.403 48.088 130.385 49.443 132.575C50.9233 134.973 52.2723 137.476 53.8496 139.798C59.3903 147.971 66.0398 154.307 76.0066 154.971C77.569 155.075 77.5645 155.136 78.7374 157.695C67.6455 158.244 60.7214 150.886 53.7436 143.395ZM99.9633 127.277C100.001 125.76 100.162 124.201 100.057 122.665C99.3007 111.826 98.4054 100.995 97.722 90.151C97.3399 84.1045 97.3847 78.0289 97.0474 71.9808C96.6027 64.0108 95.9626 56.0537 95.4224 48.0885C95.3463 46.9879 95.391 45.8761 95.3134 44.7772C94.8329 38.1981 94.4584 31.6046 93.7914 25.0482C93.278 20.0005 92.5095 14.9706 91.5992 9.98756C91.2649 8.1657 90.4561 6.2777 89.3966 4.82215C87.2821 1.92235 84.2707 2.41612 82.783 5.68546C80.658 10.3555 80.0103 15.4548 79.591 20.5121C78.7285 30.9317 78.2599 41.3884 77.5063 51.8177C76.8259 61.2756 75.9932 70.7205 75.2023 80.1671C75.0188 82.3617 74.8024 84.5595 74.4681 86.7316C73.9503 90.1123 73.5728 93.5623 71.512 96.4089C71.2045 96.8301 70.8867 97.3303 70.8121 97.837C70.3465 100.934 69.954 104.045 69.566 106.925C79.6806 113.696 89.625 120.356 99.9633 127.277ZM18.8427 115.82C21.8258 114.263 21.8213 113.858 21.3617 110.337C20.8856 106.674 20.5529 102.972 20.3947 99.2764C20.238 95.5568 20.3872 91.8195 20.3723 88.0903C20.3574 84.0351 17.5892 81.4661 13.972 82.4747C11.653 83.1201 9.31767 84.0787 7.26731 85.3987C4.06045 87.461 2.28764 90.2785 2.42642 94.8646C2.6995 104.063 5.13188 112.701 6.78082 121.849C11.2188 119.638 15.0629 117.797 18.8427 115.82ZM66.7905 106.01C67.3083 102.517 67.9589 99.3522 68.2036 96.1539C68.4707 92.5812 68.4095 88.9714 68.4095 85.3777C68.414 81.9195 67.8589 80.9691 64.7908 79.9702C62.4868 79.2182 60.0962 78.6308 57.7056 78.3565C51.8007 77.682 46.2659 82.0583 45.2766 88.4501C44.5887 92.9007 44.5021 97.461 44.1902 101.976C44.1559 102.46 44.4454 102.969 44.7006 103.871C52.2156 100.945 59.3336 102.602 66.7905 106.01ZM41.4012 104.944C41.8966 97.3384 42.3756 89.9864 42.8994 81.9792C38.7629 79.3183 34.0384 78.5243 28.9826 80.9449C28.7513 81.0562 28.5454 81.224 28.3245 81.3693C22.0033 85.5148 23.1076 84.1997 23.1524 90.9256C23.1927 97.1076 23.5314 103.288 23.8015 109.465C23.8508 110.513 24.2208 111.544 24.5133 112.917C30.5838 110.051 36.1544 107.419 41.4012 104.944ZM30.9852 139.861C30.7897 142.673 32.0343 144.621 34.3786 145.483C36.132 146.125 38.0914 146.524 39.9313 146.414C42.9636 146.233 44.229 144.061 43.6709 140.761C43.468 139.57 43.271 138.378 43.0725 137.2C38.9986 138.094 35.0651 138.96 30.9852 139.861ZM52.1022 140.635C50.7308 138.421 49.5012 136.438 48.3059 134.508C45.1035 136.117 45.0498 136.554 47.0091 144.611C48.8461 143.179 50.3413 142.012 52.1022 140.635Z"/>
</mask>
<path fill-rule="evenodd" clip-rule="evenodd" d="M71.3896 86.354C71.9402 82.4246 72.6595 78.513 73.0072 74.5627C73.5175 68.8002 73.7086 63.0071 74.1249 57.2365C74.7427 48.6 75.2948 39.9506 76.1529 31.34C76.8199 24.6383 77.7347 17.9528 78.8733 11.3253C79.4537 7.96562 80.5371 4.64142 82.8188 2.01917C84.9139 -0.385233 85.9182 -0.630531 88.4461 1.22037C91.7693 3.65221 93.6317 7.1636 94.4673 11.3931C95.397 16.1115 96.2506 20.8042 96.4461 25.6678C96.6982 31.8499 97.4727 38.0029 97.8891 44.1801C98.2263 49.1245 98.1174 54.1172 98.6501 59.0325C99.541 67.264 99.9947 75.5003 99.8783 83.7801C99.8529 85.4358 99.8932 87.0995 100.013 88.7487C100.521 95.6133 101.106 102.468 101.602 109.333C102.081 116.051 102.43 122.781 102.976 129.494C103.052 130.44 103.812 131.402 104.427 132.199C109.238 138.442 110.86 145.901 109.579 153.516C108.687 158.804 106.246 163.971 103.722 168.712C99.9156 175.875 95.4269 182.617 91.2366 189.545C88.4341 194.179 85.5496 198.873 84.7692 204.433C83.1695 215.824 83.8216 227.268 84.8736 238.666C85.369 244.004 86.3196 249.292 86.9792 254.617C88.2506 264.84 89.5683 275.062 90.6218 285.319C90.8964 287.969 91.0337 291.219 89.8801 293.325C87.8298 297.062 84.9079 300.234 81.0937 302.303C77.0199 304.516 72.7893 305.464 68.2827 306.065C58.3413 307.393 48.3969 306.883 38.4465 306.988C37.9451 306.996 37.4273 306.867 36.9408 306.717C30.0824 304.588 23.1434 302.716 16.4074 300.217C10.1906 297.912 10.6144 296.689 10.9218 290.262C10.9368 289.986 11.0338 289.718 11.0875 289.45C13.1513 279.074 15.2792 268.711 17.2669 258.319C19.4575 246.836 21.4408 235.325 21.0289 223.49C20.8722 218.99 20.1873 214.731 18.2861 210.716C15.5583 204.943 12.3201 199.369 10.2667 193.327C7.54636 185.328 5.58702 177.002 3.65305 168.72C2.78754 165.013 2.68757 161.078 2.41747 157.231C1.89966 149.822 1.35647 142.407 1.10129 134.983C0.858057 127.818 0.726747 120.63 1.02371 113.474C1.16249 110.133 1.09384 106.93 0.674516 103.624C0.146257 99.4071 0.0149333 95.1115 1.07156e-05 90.8513C-0.0029738 89.4732 0.617804 87.8273 1.45347 86.7638C4.26786 83.1798 8.05969 81.3338 12.2037 80.0315C15.1569 79.1036 17.3863 80.8948 19.9082 81.6355C20.3798 81.7743 20.8334 81.976 21.4527 82.2084C28.8006 75.1614 36.6812 75.4664 44.5349 80.6818C45.4974 79.9541 46.1466 79.5119 46.745 79.0036C50.398 75.894 54.4256 74.8096 58.9561 76.2571C61.2721 76.9994 63.5731 77.8208 65.922 78.4146C68.5289 79.0714 69.6765 81.0788 70.3987 83.5478C70.6569 84.4288 70.7285 85.3728 70.8822 86.2894C71.0508 86.3088 71.2195 86.3314 71.3896 86.354ZM53.7436 143.395C48.2432 147.029 44.2335 152.123 39.9761 157.069C35.6291 162.122 33.7549 168.534 30.4958 174.221C29.1423 169.219 31.2135 165.028 33.3505 161.155C35.5471 157.174 38.4958 153.679 41.3504 149.643C40.5819 149.527 39.9268 149.365 39.2673 149.336C34.5114 149.114 30.833 146.9 29.0184 142.076C28.135 139.73 26.786 139.422 24.855 139.501C22.6853 139.59 20.5111 139.519 18.3428 139.507C12.7155 139.478 8.59392 136.469 5.7079 131.533C4.90208 130.159 4.71107 128.105 4.84239 126.419C5.04981 123.688 4.52901 121.26 3.25761 118.282C3.25761 124.239 3.05616 129.596 3.30238 134.931C3.67843 142.904 4.22757 150.877 4.97818 158.818C5.46913 164.011 6.27047 169.188 7.25536 174.299C8.11043 178.746 9.10726 183.217 10.598 187.45C12.6812 193.353 14.6525 199.483 17.7922 204.733C24.0582 215.206 24.9267 226.553 23.2792 238.178C21.0378 253.968 18.0101 269.627 15.2598 285.329C14.833 287.765 13.9675 290.107 13.5064 292.534C12.9095 295.677 13.3826 296.836 15.9149 297.664C22.6196 299.852 29.3602 301.906 36.1186 303.885C37.5661 304.307 39.1539 304.311 40.6715 304.278C48.3268 304.099 55.994 304.067 63.6298 303.552C68.9363 303.195 74.2159 302.495 79.0822 299.553C82.4427 297.517 84.9199 294.657 87.209 291.529C87.8343 290.67 88.0118 289.179 87.9327 288.02C87.5686 282.526 87.1299 277.038 86.5539 271.577C85.7481 263.913 84.7886 256.273 83.9022 248.624C83.159 242.203 82.0846 235.801 81.7742 229.356C81.419 221.922 81.5832 214.442 81.804 206.994C82.0831 197.842 86.7539 190.649 91.2873 183.429C94.2256 178.749 97.028 173.971 99.9842 169.306C103.204 164.228 105.264 158.58 106.92 152.774C107.501 150.739 107.275 148.438 107.411 146.257C107.419 146.127 107.341 145.994 107.313 145.86C104.874 132.568 105.298 134.255 94.4644 125.827C86.1719 119.372 77.2736 113.903 68.029 109.146C63.6105 106.87 59.0367 104.944 54.0645 105.371C50.9203 105.642 47.7358 106.344 44.7409 107.414C40.7506 108.838 36.8871 110.714 33.0431 112.564C26.5159 115.704 20.0261 118.938 13.5587 122.222C12.0739 122.975 10.6204 123.934 9.36542 125.076C6.53162 127.658 6.55998 130.277 9.13263 133.24C11.0024 135.391 13.4348 136.456 15.9642 136.561C23.8582 136.888 31.8104 137.377 39.4657 134.526C41.5042 133.769 43.4724 132.762 45.3975 131.705C47.7731 130.403 48.088 130.385 49.443 132.575C50.9233 134.973 52.2723 137.476 53.8496 139.798C59.3903 147.971 66.0398 154.307 76.0066 154.971C77.569 155.075 77.5645 155.136 78.7374 157.695C67.6455 158.244 60.7214 150.886 53.7436 143.395ZM99.9633 127.277C100.001 125.76 100.162 124.201 100.057 122.665C99.3007 111.826 98.4054 100.995 97.722 90.151C97.3399 84.1045 97.3847 78.0289 97.0474 71.9808C96.6027 64.0108 95.9626 56.0537 95.4224 48.0885C95.3463 46.9879 95.391 45.8761 95.3134 44.7772C94.8329 38.1981 94.4584 31.6046 93.7914 25.0482C93.278 20.0005 92.5095 14.9706 91.5992 9.98756C91.2649 8.1657 90.4561 6.2777 89.3966 4.82215C87.2821 1.92235 84.2707 2.41612 82.783 5.68546C80.658 10.3555 80.0103 15.4548 79.591 20.5121C78.7285 30.9317 78.2599 41.3884 77.5063 51.8177C76.8259 61.2756 75.9932 70.7205 75.2023 80.1671C75.0188 82.3617 74.8024 84.5595 74.4681 86.7316C73.9503 90.1123 73.5728 93.5623 71.512 96.4089C71.2045 96.8301 70.8867 97.3303 70.8121 97.837C70.3465 100.934 69.954 104.045 69.566 106.925C79.6806 113.696 89.625 120.356 99.9633 127.277ZM18.8427 115.82C21.8258 114.263 21.8213 113.858 21.3617 110.337C20.8856 106.674 20.5529 102.972 20.3947 99.2764C20.238 95.5568 20.3872 91.8195 20.3723 88.0903C20.3574 84.0351 17.5892 81.4661 13.972 82.4747C11.653 83.1201 9.31767 84.0787 7.26731 85.3987C4.06045 87.461 2.28764 90.2785 2.42642 94.8646C2.6995 104.063 5.13188 112.701 6.78082 121.849C11.2188 119.638 15.0629 117.797 18.8427 115.82ZM66.7905 106.01C67.3083 102.517 67.9589 99.3522 68.2036 96.1539C68.4707 92.5812 68.4095 88.9714 68.4095 85.3777C68.414 81.9195 67.8589 80.9691 64.7908 79.9702C62.4868 79.2182 60.0962 78.6308 57.7056 78.3565C51.8007 77.682 46.2659 82.0583 45.2766 88.4501C44.5887 92.9007 44.5021 97.461 44.1902 101.976C44.1559 102.46 44.4454 102.969 44.7006 103.871C52.2156 100.945 59.3336 102.602 66.7905 106.01ZM41.4012 104.944C41.8966 97.3384 42.3756 89.9864 42.8994 81.9792C38.7629 79.3183 34.0384 78.5243 28.9826 80.9449C28.7513 81.0562 28.5454 81.224 28.3245 81.3693C22.0033 85.5148 23.1076 84.1997 23.1524 90.9256C23.1927 97.1076 23.5314 103.288 23.8015 109.465C23.8508 110.513 24.2208 111.544 24.5133 112.917C30.5838 110.051 36.1544 107.419 41.4012 104.944ZM30.9852 139.861C30.7897 142.673 32.0343 144.621 34.3786 145.483C36.132 146.125 38.0914 146.524 39.9313 146.414C42.9636 146.233 44.229 144.061 43.6709 140.761C43.468 139.57 43.271 138.378 43.0725 137.2C38.9986 138.094 35.0651 138.96 30.9852 139.861ZM52.1022 140.635C50.7308 138.421 49.5012 136.438 48.3059 134.508C45.1035 136.117 45.0498 136.554 47.0091 144.611C48.8461 143.179 50.3413 142.012 52.1022 140.635Z" stroke="#43936C" stroke-width="12" mask="url(#path-1-inside-1_1444_26217)"/>
<path fill-rule="evenodd" clip-rule="evenodd" d="M50.9998 279.2C61.6037 279.2 70.1998 270.604 70.1998 260C70.1998 249.396 61.6037 240.8 50.9998 240.8C40.3959 240.8 31.7998 249.396 31.7998 260C31.7998 270.604 40.3959 279.2 50.9998 279.2ZM59.8969 256.897C60.8341 255.96 60.8341 254.44 59.8969 253.503C58.9596 252.565 57.44 252.565 56.5028 253.503L48.5998 261.406L45.4969 258.303C44.5596 257.365 43.04 257.365 42.1027 258.303C41.1655 259.24 41.1655 260.76 42.1027 261.697L46.9027 266.497C47.84 267.434 49.3596 267.434 50.2969 266.497L59.8969 256.897Z" fill="#43936C"/>
</svg>
